<?xml version="1.0" encoding="utf-8"?>
<!-- Generator: Adobe Illustrator 17.1.0, SVG Export Plug-In . SVG Version: 6.00 Build 0)  -->
<!DOCTYPE svg PUBLIC "-//W3C//DTD SVG 1.1//EN" "http://www.w3.org/Graphics/SVG/1.1/DTD/svg11.dtd">
<svg version="1.1" id="Layer_1" xmlns="http://www.w3.org/2000/svg" xmlns:xlink="http://www.w3.org/1999/xlink" x="0px" y="0px"
	 viewBox="0 0 167.5 77.9" enable-background="new 0 0 167.5 77.9" xml:space="preserve">
<g>
	<g>
		<path fill="#1A171B" d="M96.6,11.6h-1.3c-0.2,0-0.3,0-0.4-0.1c-0.1-0.1-0.2-0.2-0.2-0.3L94,9.3h-3.9l-0.7,1.9
			c0,0.1-0.1,0.2-0.2,0.3c-0.1,0.1-0.2,0.1-0.4,0.1h-1.4l3.7-9.4H93L96.6,11.6z M90.6,8.1h3l-1.1-3.1c-0.1-0.1-0.1-0.3-0.2-0.5
			c-0.1-0.2-0.1-0.4-0.2-0.6C92,4.1,92,4.3,91.9,4.5c-0.1,0.2-0.1,0.4-0.2,0.5L90.6,8.1z"/>
		<path fill="#1A171B" d="M102.6,3.9c0,0.1-0.1,0.2-0.2,0.2c-0.1,0-0.1,0.1-0.2,0.1c-0.1,0-0.2,0-0.3-0.1c-0.1-0.1-0.2-0.1-0.4-0.2
			c-0.1-0.1-0.3-0.2-0.5-0.2c-0.2-0.1-0.4-0.1-0.7-0.1c-0.2,0-0.5,0-0.6,0.1c-0.2,0.1-0.3,0.1-0.5,0.2C99.1,4,99.1,4.1,99,4.2
			c-0.1,0.1-0.1,0.3-0.1,0.5c0,0.2,0.1,0.4,0.2,0.5c0.1,0.1,0.3,0.3,0.5,0.4c0.2,0.1,0.4,0.2,0.7,0.3c0.3,0.1,0.5,0.2,0.8,0.3
			c0.3,0.1,0.5,0.2,0.8,0.3c0.3,0.1,0.5,0.3,0.7,0.5c0.2,0.2,0.4,0.4,0.5,0.7c0.1,0.3,0.2,0.6,0.2,1c0,0.4-0.1,0.8-0.2,1.2
			c-0.1,0.4-0.4,0.7-0.6,1c-0.3,0.3-0.6,0.5-1,0.6c-0.4,0.2-0.9,0.2-1.4,0.2c-0.3,0-0.6,0-0.9-0.1c-0.3-0.1-0.6-0.1-0.8-0.2
			c-0.3-0.1-0.5-0.2-0.7-0.4c-0.2-0.2-0.4-0.3-0.6-0.5l0.5-0.8c0-0.1,0.1-0.1,0.2-0.2c0.1,0,0.1-0.1,0.2-0.1c0.1,0,0.2,0,0.3,0.1
			c0.1,0.1,0.3,0.2,0.4,0.3c0.2,0.1,0.4,0.2,0.6,0.3c0.2,0.1,0.5,0.1,0.8,0.1c0.5,0,0.9-0.1,1.2-0.4c0.3-0.2,0.4-0.6,0.4-1
			c0-0.2-0.1-0.4-0.2-0.6c-0.1-0.2-0.3-0.3-0.5-0.4c-0.2-0.1-0.4-0.2-0.7-0.3c-0.3-0.1-0.5-0.2-0.8-0.2c-0.3-0.1-0.5-0.2-0.8-0.3
			c-0.3-0.1-0.5-0.3-0.7-0.5c-0.2-0.2-0.4-0.4-0.5-0.7c-0.1-0.3-0.2-0.7-0.2-1.1c0-0.3,0.1-0.7,0.2-1c0.1-0.3,0.3-0.6,0.6-0.9
			c0.3-0.3,0.6-0.5,1-0.6c0.4-0.2,0.8-0.2,1.3-0.2c0.6,0,1.1,0.1,1.5,0.3c0.5,0.2,0.9,0.4,1.2,0.7L102.6,3.9z"/>
		<path fill="#1A171B" d="M113.5,6.9c0,0.7-0.1,1.3-0.3,1.9c-0.2,0.6-0.5,1.1-1,1.5c-0.4,0.4-0.9,0.8-1.5,1
			c-0.6,0.2-1.2,0.4-1.9,0.4c-0.7,0-1.4-0.1-1.9-0.4c-0.6-0.2-1.1-0.6-1.5-1c-0.4-0.4-0.7-0.9-1-1.5c-0.2-0.6-0.3-1.2-0.3-1.9
			c0-0.7,0.1-1.3,0.3-1.9c0.2-0.6,0.6-1.1,1-1.5c0.4-0.4,0.9-0.8,1.5-1c0.6-0.2,1.2-0.4,1.9-0.4c0.7,0,1.4,0.1,1.9,0.4
			c0.6,0.2,1.1,0.6,1.5,1c0.4,0.4,0.7,0.9,1,1.5C113.4,5.6,113.5,6.2,113.5,6.9z M111.7,6.9c0-0.5-0.1-1-0.2-1.4
			c-0.1-0.4-0.3-0.8-0.6-1c-0.3-0.3-0.6-0.5-0.9-0.7c-0.4-0.2-0.8-0.2-1.2-0.2c-0.5,0-0.9,0.1-1.2,0.2c-0.4,0.2-0.7,0.4-0.9,0.7
			c-0.3,0.3-0.5,0.6-0.6,1c-0.1,0.4-0.2,0.9-0.2,1.4s0.1,1,0.2,1.4c0.1,0.4,0.3,0.8,0.6,1c0.3,0.3,0.6,0.5,0.9,0.7
			c0.4,0.2,0.8,0.2,1.2,0.2c0.5,0,0.9-0.1,1.2-0.2c0.4-0.2,0.7-0.4,0.9-0.7c0.3-0.3,0.4-0.6,0.6-1C111.7,7.9,111.7,7.4,111.7,6.9z"
			/>
		<path fill="#1A171B" d="M121.3,9.4c0.1,0,0.2,0,0.2,0.1l0.7,0.7c-0.4,0.5-0.8,0.8-1.4,1.1c-0.6,0.3-1.2,0.4-2,0.4
			c-0.7,0-1.3-0.1-1.9-0.4c-0.6-0.2-1-0.6-1.4-1c-0.4-0.4-0.7-0.9-0.9-1.5c-0.2-0.6-0.3-1.2-0.3-1.9c0-0.7,0.1-1.3,0.3-1.9
			c0.2-0.6,0.6-1.1,1-1.5c0.4-0.4,0.9-0.8,1.5-1c0.6-0.2,1.2-0.4,2-0.4c0.7,0,1.3,0.1,1.8,0.3c0.5,0.2,1,0.5,1.3,0.9l-0.6,0.8
			c0,0.1-0.1,0.1-0.1,0.1c-0.1,0-0.1,0.1-0.2,0.1c-0.1,0-0.2,0-0.3-0.1c-0.1-0.1-0.2-0.2-0.4-0.3c-0.2-0.1-0.4-0.2-0.6-0.3
			c-0.2-0.1-0.6-0.1-0.9-0.1c-0.4,0-0.8,0.1-1.2,0.2c-0.4,0.2-0.7,0.4-1,0.7c-0.3,0.3-0.5,0.6-0.6,1c-0.1,0.4-0.2,0.9-0.2,1.4
			c0,0.5,0.1,1,0.2,1.4c0.1,0.4,0.4,0.8,0.6,1c0.3,0.3,0.6,0.5,0.9,0.6c0.3,0.1,0.7,0.2,1.1,0.2c0.2,0,0.5,0,0.6,0
			c0.2,0,0.4-0.1,0.5-0.1c0.2-0.1,0.3-0.1,0.5-0.2c0.1-0.1,0.3-0.2,0.4-0.3c0,0,0.1-0.1,0.1-0.1C121.2,9.4,121.3,9.4,121.3,9.4z"/>
		<path fill="#1A171B" d="M125.5,11.6h-1.7V2.2h1.7V11.6z"/>
		<path fill="#1A171B" d="M135.9,11.6h-1.3c-0.2,0-0.3,0-0.4-0.1c-0.1-0.1-0.2-0.2-0.2-0.3l-0.7-1.9h-3.9l-0.7,1.9
			c0,0.1-0.1,0.2-0.2,0.3c-0.1,0.1-0.2,0.1-0.4,0.1h-1.4l3.7-9.4h1.8L135.9,11.6z M129.8,8.1h3l-1.1-3.1c-0.1-0.1-0.1-0.3-0.2-0.5
			c-0.1-0.2-0.1-0.4-0.2-0.6c-0.1,0.2-0.1,0.4-0.2,0.6C131,4.6,131,4.8,130.9,5L129.8,8.1z"/>
		<path fill="#1A171B" d="M142.9,9.4c0.1,0,0.2,0,0.2,0.1l0.7,0.7c-0.4,0.5-0.8,0.8-1.4,1.1c-0.6,0.3-1.2,0.4-2,0.4
			c-0.7,0-1.3-0.1-1.9-0.4c-0.6-0.2-1-0.6-1.4-1c-0.4-0.4-0.7-0.9-0.9-1.5c-0.2-0.6-0.3-1.2-0.3-1.9c0-0.7,0.1-1.3,0.3-1.9
			c0.2-0.6,0.6-1.1,1-1.5c0.4-0.4,0.9-0.8,1.5-1c0.6-0.2,1.2-0.4,2-0.4c0.7,0,1.3,0.1,1.8,0.3c0.5,0.2,1,0.5,1.3,0.9l-0.6,0.8
			c0,0.1-0.1,0.1-0.1,0.1c-0.1,0-0.1,0.1-0.2,0.1c-0.1,0-0.2,0-0.3-0.1c-0.1-0.1-0.2-0.2-0.4-0.3c-0.2-0.1-0.4-0.2-0.6-0.3
			c-0.2-0.1-0.6-0.1-0.9-0.1c-0.4,0-0.8,0.1-1.2,0.2c-0.4,0.2-0.7,0.4-1,0.7c-0.3,0.3-0.5,0.6-0.6,1c-0.1,0.4-0.2,0.9-0.2,1.4
			c0,0.5,0.1,1,0.2,1.4c0.1,0.4,0.4,0.8,0.6,1c0.3,0.3,0.6,0.5,0.9,0.6c0.3,0.1,0.7,0.2,1.1,0.2c0.2,0,0.5,0,0.6,0
			c0.2,0,0.4-0.1,0.5-0.1c0.2-0.1,0.3-0.1,0.5-0.2c0.1-0.1,0.3-0.2,0.4-0.3c0,0,0.1-0.1,0.1-0.1C142.8,9.4,142.9,9.4,142.9,9.4z"/>
		<path fill="#1A171B" d="M147.1,11.6h-1.7V2.2h1.7V11.6z"/>
		<path fill="#1A171B" d="M158.2,6.9c0,0.7-0.1,1.3-0.3,1.9c-0.2,0.6-0.5,1.1-1,1.5c-0.4,0.4-0.9,0.8-1.5,1
			c-0.6,0.2-1.2,0.4-1.9,0.4c-0.7,0-1.4-0.1-1.9-0.4c-0.6-0.2-1.1-0.6-1.5-1c-0.4-0.4-0.7-0.9-1-1.5c-0.2-0.6-0.3-1.2-0.3-1.9
			c0-0.7,0.1-1.3,0.3-1.9c0.2-0.6,0.6-1.1,1-1.5c0.4-0.4,0.9-0.8,1.5-1c0.6-0.2,1.2-0.4,1.9-0.4c0.7,0,1.4,0.1,1.9,0.4
			c0.6,0.2,1.1,0.6,1.5,1c0.4,0.4,0.7,0.9,1,1.5C158.1,5.6,158.2,6.2,158.2,6.9z M156.4,6.9c0-0.5-0.1-1-0.2-1.4
			c-0.1-0.4-0.3-0.8-0.6-1c-0.3-0.3-0.6-0.5-0.9-0.7c-0.4-0.2-0.8-0.2-1.2-0.2c-0.5,0-0.9,0.1-1.2,0.2c-0.4,0.2-0.7,0.4-0.9,0.7
			c-0.3,0.3-0.5,0.6-0.6,1c-0.1,0.4-0.2,0.9-0.2,1.4s0.1,1,0.2,1.4c0.1,0.4,0.3,0.8,0.6,1c0.3,0.3,0.6,0.5,0.9,0.7
			c0.4,0.2,0.8,0.2,1.2,0.2c0.5,0,0.9-0.1,1.2-0.2c0.4-0.2,0.7-0.4,0.9-0.7c0.3-0.3,0.4-0.6,0.6-1C156.3,7.9,156.4,7.4,156.4,6.9z
			 M156,0L154,1.4c0,0-0.1,0.1-0.1,0.1c0,0-0.1,0-0.1,0.1c0,0-0.1,0-0.1,0c0,0-0.1,0-0.2,0h-1.3l1.3-1.3c0.1-0.1,0.1-0.1,0.1-0.1
			c0,0,0.1-0.1,0.1-0.1c0,0,0.1,0,0.2,0c0.1,0,0.1,0,0.2,0H156z"/>
		<path fill="#1A171B" d="M160.7,2.2c0.1,0,0.1,0,0.1,0c0,0,0.1,0,0.1,0.1c0,0,0.1,0.1,0.1,0.1l4.9,6.3c0-0.2,0-0.3,0-0.4
			c0-0.1,0-0.3,0-0.4V2.2h1.5v9.4h-0.9c-0.1,0-0.3,0-0.3-0.1c-0.1,0-0.2-0.1-0.3-0.2l-4.9-6.2c0,0.1,0,0.3,0,0.4c0,0.1,0,0.3,0,0.4
			v5.7h-1.5V2.2h0.9C160.6,2.2,160.6,2.2,160.7,2.2z"/>
		<path fill="#1A171B" d="M94.3,16v1.4h-4.1V20h3.3v1.3h-3.3v2.6h4.1v1.4h-5.9V16H94.3z"/>
		<path fill="#1A171B" d="M100.8,17.7c0,0.1-0.1,0.2-0.2,0.2c-0.1,0-0.1,0.1-0.2,0.1c-0.1,0-0.2,0-0.3-0.1c-0.1-0.1-0.2-0.1-0.4-0.2
			c-0.1-0.1-0.3-0.2-0.5-0.2c-0.2-0.1-0.4-0.1-0.7-0.1c-0.2,0-0.5,0-0.6,0.1c-0.2,0.1-0.3,0.1-0.5,0.2c-0.1,0.1-0.2,0.2-0.3,0.4
			c-0.1,0.1-0.1,0.3-0.1,0.5c0,0.2,0.1,0.4,0.2,0.5c0.1,0.1,0.3,0.3,0.5,0.4c0.2,0.1,0.4,0.2,0.7,0.3c0.3,0.1,0.5,0.2,0.8,0.3
			c0.3,0.1,0.5,0.2,0.8,0.3c0.3,0.1,0.5,0.3,0.7,0.5c0.2,0.2,0.4,0.4,0.5,0.7c0.1,0.3,0.2,0.6,0.2,1c0,0.4-0.1,0.8-0.2,1.2
			c-0.1,0.4-0.4,0.7-0.6,1c-0.3,0.3-0.6,0.5-1,0.6c-0.4,0.2-0.9,0.2-1.4,0.2c-0.3,0-0.6,0-0.9-0.1c-0.3-0.1-0.6-0.1-0.8-0.2
			c-0.3-0.1-0.5-0.2-0.7-0.4c-0.2-0.2-0.4-0.3-0.6-0.5l0.5-0.8c0-0.1,0.1-0.1,0.2-0.2c0.1,0,0.1-0.1,0.2-0.1c0.1,0,0.2,0,0.3,0.1
			c0.1,0.1,0.3,0.2,0.4,0.3c0.2,0.1,0.4,0.2,0.6,0.3c0.2,0.1,0.5,0.1,0.8,0.1c0.5,0,0.9-0.1,1.2-0.4c0.3-0.2,0.4-0.6,0.4-1
			c0-0.2-0.1-0.4-0.2-0.6c-0.1-0.2-0.3-0.3-0.5-0.4c-0.2-0.1-0.4-0.2-0.7-0.3c-0.3-0.1-0.5-0.2-0.8-0.2c-0.3-0.1-0.5-0.2-0.8-0.3
			c-0.3-0.1-0.5-0.3-0.7-0.5c-0.2-0.2-0.4-0.4-0.5-0.7c-0.1-0.3-0.2-0.7-0.2-1.1c0-0.3,0.1-0.7,0.2-1c0.1-0.3,0.3-0.6,0.6-0.9
			c0.3-0.3,0.6-0.5,1-0.6c0.4-0.2,0.8-0.2,1.3-0.2c0.6,0,1.1,0.1,1.5,0.3c0.5,0.2,0.9,0.4,1.2,0.7L100.8,17.7z"/>
		<path fill="#1A171B" d="M104.6,22v3.3h-1.7V16h3c0.6,0,1.2,0.1,1.6,0.2c0.5,0.1,0.8,0.4,1.1,0.6c0.3,0.3,0.5,0.6,0.7,0.9
			c0.1,0.4,0.2,0.8,0.2,1.2c0,0.5-0.1,0.9-0.2,1.2c-0.2,0.4-0.4,0.7-0.7,1c-0.3,0.3-0.7,0.5-1.1,0.6c-0.5,0.2-1,0.2-1.6,0.2H104.6z
			 M104.6,20.7h1.3c0.3,0,0.6,0,0.8-0.1c0.2-0.1,0.4-0.2,0.6-0.3c0.2-0.1,0.3-0.3,0.3-0.5c0.1-0.2,0.1-0.5,0.1-0.7
			c0-0.3,0-0.5-0.1-0.7c-0.1-0.2-0.2-0.4-0.3-0.5c-0.2-0.1-0.4-0.3-0.6-0.3c-0.2-0.1-0.5-0.1-0.8-0.1h-1.3V20.7z"/>
		<path fill="#1A171B" d="M118.1,25.3h-1.3c-0.2,0-0.3,0-0.4-0.1c-0.1-0.1-0.2-0.2-0.2-0.3l-0.7-1.9h-3.9l-0.7,1.9
			c0,0.1-0.1,0.2-0.2,0.3c-0.1,0.1-0.2,0.1-0.4,0.1h-1.4l3.7-9.4h1.8L118.1,25.3z M112,21.8h3l-1.1-3.1c-0.1-0.1-0.1-0.3-0.2-0.5
			c-0.1-0.2-0.1-0.4-0.2-0.6c-0.1,0.2-0.1,0.4-0.2,0.6c-0.1,0.2-0.1,0.4-0.2,0.5L112,21.8z"/>
		<path fill="#1A171B" d="M120.1,16c0.1,0,0.1,0,0.1,0c0,0,0.1,0,0.1,0.1c0,0,0.1,0.1,0.1,0.1l4.9,6.3c0-0.2,0-0.3,0-0.4
			c0-0.1,0-0.3,0-0.4V16h1.5v9.4H126c-0.1,0-0.3,0-0.3-0.1c-0.1,0-0.2-0.1-0.3-0.2l-4.9-6.2c0,0.1,0,0.3,0,0.4c0,0.1,0,0.3,0,0.4
			v5.7H119V16h0.9C120,16,120.1,16,120.1,16z M123.9,14.3c0.1,0,0.2,0,0.3-0.1c0.1-0.1,0.1-0.2,0.1-0.3h0.9c0,0.2,0,0.4-0.1,0.6
			c-0.1,0.2-0.1,0.3-0.2,0.5c-0.1,0.1-0.2,0.2-0.4,0.3c-0.2,0.1-0.3,0.1-0.5,0.1c-0.2,0-0.3,0-0.4-0.1c-0.1,0-0.3-0.1-0.4-0.2
			c-0.1-0.1-0.3-0.1-0.4-0.2c-0.1,0-0.2-0.1-0.3-0.1c-0.1,0-0.2,0-0.3,0.1c-0.1,0.1-0.1,0.2-0.1,0.3h-0.9c0-0.2,0-0.4,0.1-0.6
			c0.1-0.2,0.1-0.3,0.2-0.5c0.1-0.1,0.2-0.2,0.4-0.3c0.2-0.1,0.3-0.1,0.5-0.1c0.2,0,0.3,0,0.5,0.1c0.1,0,0.3,0.1,0.4,0.2
			c0.1,0.1,0.3,0.1,0.4,0.2C123.7,14.3,123.8,14.3,123.9,14.3z"/>
		<path fill="#1A171B" d="M137.8,20.7c0,0.7-0.1,1.3-0.3,1.9c-0.2,0.6-0.5,1.1-1,1.5c-0.4,0.4-0.9,0.8-1.5,1
			c-0.6,0.2-1.2,0.4-1.9,0.4c-0.7,0-1.4-0.1-1.9-0.4c-0.6-0.2-1.1-0.6-1.5-1c-0.4-0.4-0.7-0.9-1-1.5c-0.2-0.6-0.3-1.2-0.3-1.9
			c0-0.7,0.1-1.3,0.3-1.9c0.2-0.6,0.6-1.1,1-1.5c0.4-0.4,0.9-0.8,1.5-1c0.6-0.2,1.2-0.4,1.9-0.4c0.7,0,1.4,0.1,1.9,0.4
			c0.6,0.2,1.1,0.6,1.5,1c0.4,0.4,0.7,0.9,1,1.5C137.7,19.3,137.8,20,137.8,20.7z M136,20.7c0-0.5-0.1-1-0.2-1.4
			c-0.1-0.4-0.3-0.8-0.6-1c-0.3-0.3-0.6-0.5-0.9-0.7c-0.4-0.2-0.8-0.2-1.2-0.2c-0.5,0-0.9,0.1-1.2,0.2c-0.4,0.2-0.7,0.4-0.9,0.7
			c-0.3,0.3-0.5,0.6-0.6,1c-0.1,0.4-0.2,0.9-0.2,1.4s0.1,1,0.2,1.4c0.1,0.4,0.3,0.8,0.6,1c0.3,0.3,0.6,0.5,0.9,0.7
			c0.4,0.2,0.8,0.2,1.2,0.2c0.5,0,0.9-0.1,1.2-0.2c0.4-0.2,0.7-0.4,0.9-0.7c0.3-0.3,0.4-0.6,0.6-1C135.9,21.6,136,21.2,136,20.7z"/>
		<path fill="#1A171B" d="M140.9,23.9h3.7v1.4h-5.5V16h1.7V23.9z"/>
		<path fill="#1A171B" d="M154.1,25.3h-1.3c-0.2,0-0.3,0-0.4-0.1c-0.1-0.1-0.2-0.2-0.2-0.3l-0.7-1.9h-3.9l-0.7,1.9
			c0,0.1-0.1,0.2-0.2,0.3s-0.2,0.1-0.4,0.1h-1.4l3.7-9.4h1.8L154.1,25.3z M148,21.8h3l-1.1-3.1c-0.1-0.1-0.1-0.3-0.2-0.5
			c-0.1-0.2-0.1-0.4-0.2-0.6c-0.1,0.2-0.1,0.4-0.2,0.6c-0.1,0.2-0.1,0.4-0.2,0.5L148,21.8z"/>
		<path fill="#1A171B" d="M96.7,34.4c0,0.7-0.1,1.3-0.3,1.9c-0.2,0.6-0.5,1.1-1,1.5c-0.4,0.4-0.9,0.7-1.5,1
			c-0.6,0.2-1.2,0.3-1.9,0.3h-3.6v-9.4H92c0.7,0,1.4,0.1,1.9,0.3c0.6,0.2,1.1,0.6,1.5,1c0.4,0.4,0.7,0.9,1,1.5
			C96.6,33.1,96.7,33.7,96.7,34.4z M94.9,34.4c0-0.5-0.1-1-0.2-1.4c-0.1-0.4-0.3-0.8-0.6-1c-0.3-0.3-0.6-0.5-0.9-0.6
			c-0.4-0.2-0.8-0.2-1.2-0.2h-1.8v6.6H92c0.5,0,0.9-0.1,1.2-0.2c0.4-0.2,0.7-0.4,0.9-0.7c0.3-0.3,0.5-0.6,0.6-1
			C94.9,35.4,94.9,34.9,94.9,34.4z"/>
		<path fill="#1A171B" d="M104,29.7v1.4h-4.1v2.6h3.3V35h-3.3v2.6h4.1v1.4h-5.9v-9.4H104z"/>
		<path fill="#009DDF" d="M116.4,34.4c0,0.7-0.1,1.3-0.4,1.9c-0.2,0.6-0.6,1.1-1,1.5c-0.4,0.4-0.9,0.7-1.5,1c-0.6,0.2-1.3,0.4-2,0.4
			h-3.7v-9.4h3.7c0.7,0,1.4,0.1,2,0.4c0.6,0.2,1.1,0.6,1.5,1c0.4,0.4,0.8,0.9,1,1.5C116.3,33.1,116.4,33.7,116.4,34.4z M114.1,34.4
			c0-0.5-0.1-0.9-0.2-1.3c-0.1-0.4-0.3-0.7-0.5-1c-0.2-0.3-0.5-0.5-0.8-0.6c-0.3-0.1-0.7-0.2-1.1-0.2H110v6.1h1.5
			c0.4,0,0.8-0.1,1.1-0.2c0.3-0.1,0.6-0.3,0.8-0.6c0.2-0.3,0.4-0.6,0.5-1C114.1,35.3,114.1,34.8,114.1,34.4z"/>
		<path fill="#009DDF" d="M119.6,35.6v3.5h-2.2v-9.4h3.1c0.7,0,1.3,0.1,1.7,0.2c0.5,0.1,0.9,0.3,1.2,0.6c0.3,0.3,0.5,0.5,0.7,0.9
			c0.1,0.3,0.2,0.7,0.2,1.1c0,0.3,0,0.6-0.1,0.9c-0.1,0.3-0.2,0.5-0.4,0.8c-0.2,0.2-0.4,0.4-0.6,0.6c-0.2,0.2-0.5,0.3-0.8,0.4
			c0.1,0.1,0.3,0.2,0.4,0.3c0.1,0.1,0.2,0.2,0.3,0.4l2,3.3h-2c-0.4,0-0.6-0.1-0.8-0.4l-1.6-2.7c-0.1-0.1-0.2-0.2-0.2-0.3
			c-0.1-0.1-0.2-0.1-0.4-0.1H119.6z M119.6,34.1h0.9c0.3,0,0.6,0,0.8-0.1c0.2-0.1,0.4-0.2,0.5-0.3c0.1-0.1,0.2-0.3,0.3-0.5
			c0.1-0.2,0.1-0.4,0.1-0.6c0-0.4-0.1-0.7-0.4-1c-0.3-0.2-0.7-0.3-1.3-0.3h-0.9V34.1z"/>
		<path fill="#009DDF" d="M129.6,37.4c0.3,0,0.6,0,0.8-0.1c0.2-0.1,0.4-0.2,0.6-0.4c0.2-0.2,0.3-0.4,0.4-0.7
			c0.1-0.3,0.1-0.6,0.1-0.9v-5.6h2.2v5.6c0,0.6-0.1,1.1-0.3,1.6c-0.2,0.5-0.5,0.9-0.8,1.2c-0.3,0.3-0.8,0.6-1.3,0.8
			c-0.5,0.2-1.1,0.3-1.7,0.3c-0.6,0-1.2-0.1-1.7-0.3c-0.5-0.2-0.9-0.5-1.3-0.8c-0.3-0.3-0.6-0.8-0.8-1.2c-0.2-0.5-0.3-1-0.3-1.6
			v-5.6h2.2v5.6c0,0.3,0,0.6,0.1,0.9c0.1,0.3,0.2,0.5,0.4,0.7c0.2,0.2,0.4,0.3,0.6,0.4C129,37.3,129.3,37.4,129.6,37.4z"/>
		<path fill="#009DDF" d="M137.2,35.9v3.2H135v-9.4h3.3c0.7,0,1.2,0.1,1.7,0.2c0.5,0.2,0.9,0.4,1.2,0.7c0.3,0.3,0.5,0.6,0.7,1
			c0.1,0.4,0.2,0.8,0.2,1.2c0,0.5-0.1,0.9-0.2,1.3c-0.2,0.4-0.4,0.7-0.7,1c-0.3,0.3-0.7,0.5-1.2,0.7c-0.5,0.2-1,0.2-1.7,0.2H137.2z
			 M137.2,34.3h1.1c0.6,0,1-0.1,1.2-0.4c0.3-0.3,0.4-0.7,0.4-1.1c0-0.2,0-0.4-0.1-0.6c-0.1-0.2-0.2-0.3-0.3-0.5
			c-0.1-0.1-0.3-0.2-0.5-0.3c-0.2-0.1-0.4-0.1-0.7-0.1h-1.1V34.3z"/>
		<path fill="#009DDF" d="M151,39.1h-1.7c-0.2,0-0.3,0-0.5-0.1c-0.1-0.1-0.2-0.2-0.3-0.3L148,37h-3.6l-0.6,1.6
			c0,0.1-0.1,0.2-0.3,0.3c-0.1,0.1-0.3,0.1-0.5,0.1h-1.7l3.6-9.4h2.2L151,39.1z M144.9,35.5h2.6l-0.9-2.6c-0.1-0.2-0.1-0.4-0.2-0.6
			c-0.1-0.2-0.2-0.5-0.2-0.7c-0.1,0.3-0.1,0.5-0.2,0.7c-0.1,0.2-0.1,0.4-0.2,0.6L144.9,35.5z"/>
		<path fill="#009DDF" d="M153.9,37.3h3.5v1.7h-5.7v-9.4h2.2V37.3z"/>
	</g>
	<g>
		<rect x="0" y="0" width="77.9" height="77.9"/>
	</g>
	<path fill="#009DDF" d="M52.8,37.3l-1.4,10.8c0,0,5.3,0.9,5.7-4C57.4,38.5,52.8,37.3,52.8,37.3z"/>
	<path fill="#E1001A" d="M47.2,12.3c-0.1-0.1-0.1-0.1-0.3-0.1c-0.1,0-0.2,0.1-0.2,0.2c-0.4,1-1.6,3.5-2.7,3.4
		c-0.5-0.1-1.1-0.5-1.8-0.9C40.9,14,39.4,13,37.5,13c-0.3,0-0.6,0-0.9,0.1c-2.9,0.5-4.6,4.3-4.7,4.4c0,0.1,0,0.1,0,0.2
		c0,0.1,0.1,0.1,0.2,0.2L35,19c0,0,0.1,0,0.1,0c0,0,0.1,0,0.1,0c0.1,0,0.1-0.1,0.1-0.2c0,0,0.9-2.6,2.8-2.4c0.7,0.1,1.5,0.5,2.3,1
		c1.1,0.6,2.3,1.3,3.5,1.3c0.8,0,1.5-0.3,2.2-0.9C48.8,15.4,47.2,12.4,47.2,12.3z"/>
	<path fill="#FFFFFF" d="M62.4,35.4c-2.8-5.5-9-7.1-14.7-7c0,0-0.5,3.5-0.7,4.7c-0.3,1.9-0.5,3.8-0.8,5.7c-0.5,3.8-1.1,7.7-2.3,11.4
		c-0.9,3.1-4.6,4.4-7,1.8c-1-1.1-1.4-2.6-1.8-4c0,0-0.7-3.3-0.5-4.8c4.6-1.6,9.1-5,10.4-9.9c0.9-3.3,0.9-8.3-2-10.5
		c-4.3-3.2-7.5,0.6-9.1,4.1c-1.3,2.7-2.1,5.6-2.7,8.5c-0.3,1.5-0.4,3-0.6,4.5c0,0.1-0.1,1.2-0.1,1.2c-0.5,0.1-1.8,0.4-1.8,0.4
		c-0.4-3.8-1.4-9.8-5.5-11.2c-4.2-1.4-8.6,1.4-10.9,4.8c-0.5,0.8-1.4,1.7-0.3,2.2c0.7,0.3,2.7,1.5,3.4,1.3c0.5-0.2,1.3-2.4,1.6-2.9
		c0.7-1,1.5-1.9,2.5-2.6c2.2-1.5,3.7-0.1,4.3,2.1c0.3,1.1,0.5,2.3,0.6,3.5c0,0.5,0.1,4,0.1,4s-3,1.7-4,2.4c-1.5,1-2.8,2.2-3.9,3.7
		c-1.9,2.7-1.4,5.6,1.4,7.4c2.5,1.6,6.7,2.2,8.9-0.3c1.1-1.3,1.3-3.1,1.6-4.7c0.4-2.2,0.2-4.5,0.4-6.7c0.5-0.2,0.9-0.3,1.4-0.5
		c0.2,4.1,1.6,9,5.1,11.5c3.1,2.2,7.3,2.2,10-0.7c2.3-2.5,2.9-6.3,3.3-9.6c0.6-4.5,1.2-9.1,1.8-13.6c6,0,9.2,5.7,9.4,11.1
		c0.1,2.9-0.4,5.7-2.5,7.8c-1.9,1.9-4.6,2.9-7.3,2.9c-0.2,0-0.4,0-0.6,0c-0.9,0-0.8,0.4-1,1.2c-0.1,0.3-0.5,2.9-0.5,2.9
		c0.3,0.1,0.8,0.1,1.5,0.1c1-0.1,2.2-0.2,2.8-0.3c3-0.5,5.9-1.7,8.1-3.8C65.6,49,65.2,40.9,62.4,35.4z M23.8,53.9
		c-0.6,1.1-2.2,1.7-3.1,0.6c-0.8-1.1-0.2-2.8,0.4-3.8c0.8-1.5,2.3-2.9,3.8-3.8C25,49.1,24.6,51.9,23.8,53.9z M40.3,26.8
		C44.7,28,40,38.4,34.6,40C34.6,40,35.3,25.5,40.3,26.8z"/>
</g>
</svg>
