<?xml version="1.0" encoding="utf-8"?>
<!-- Generator: Adobe Illustrator 17.1.0, SVG Export Plug-In . SVG Version: 6.00 Build 0)  -->
<!DOCTYPE svg PUBLIC "-//W3C//DTD SVG 1.1//EN" "http://www.w3.org/Graphics/SVG/1.1/DTD/svg11.dtd">
<svg version="1.1" id="Layer_1" xmlns="http://www.w3.org/2000/svg" xmlns:xlink="http://www.w3.org/1999/xlink" x="0px" y="0px"
	 viewBox="0 0 232.994 51.999" enable-background="new 0 0 232.994 51.999" xml:space="preserve">
<g>
	<polyline fill="none" stroke="#FFFFFF" stroke-width="3" points="10.601,45.345 7.713,50.499 230.095,50.499 214.58,28.576 
		230.095,6.653 221.293,6.653 	"/>
	<polygon fill="none" stroke="#FFFFFF" stroke-width="3" points="2.56,45.345 224.941,45.345 209.427,23.423 224.941,1.5 2.56,1.5 
		14.842,23.423 	"/>
	<g>
		<path fill="#FFFFFF" d="M22.737,33.242l0.548-2.115l6.129-5.53c1.623-1.462,2.762-2.728,3.416-3.798s0.98-2.243,0.98-3.517
			c0-0.808-0.217-1.447-0.649-1.918c-0.434-0.472-1.02-0.708-1.759-0.708c-2.005,0-3.241,1.313-3.708,3.938
			c-1.231,0-1.849-0.557-1.849-1.67c0-0.969,0.525-1.808,1.574-2.517s2.42-1.064,4.109-1.064c1.572,0,2.787,0.332,3.645,0.994
			c0.858,0.663,1.287,1.602,1.287,2.816c0,1.036-0.369,2.104-1.107,3.205c-0.74,1.101-2.18,2.605-4.32,4.518l-5.862,5.275h6.054
			c0.568,0,1.055-0.13,1.459-0.389c0.402-0.259,0.779-0.779,1.127-1.562l0.179-0.42h1.096l-1.045,4.46H22.737z"/>
		<path fill="#FFFFFF" d="M36.023,33.242l0.548-2.115l6.13-5.53c1.622-1.462,2.76-2.728,3.414-3.798s0.982-2.243,0.982-3.517
			c0-0.808-0.217-1.447-0.65-1.918c-0.434-0.472-1.02-0.708-1.759-0.708c-2.005,0-3.241,1.313-3.708,3.938
			c-1.232,0-1.848-0.557-1.848-1.67c0-0.969,0.524-1.808,1.574-2.517c1.049-0.709,2.418-1.064,4.109-1.064
			c1.571,0,2.786,0.332,3.645,0.994c0.857,0.663,1.287,1.602,1.287,2.816c0,1.036-0.37,2.104-1.109,3.205
			c-0.738,1.101-2.179,2.605-4.32,4.518l-5.861,5.275h6.053c0.569,0,1.056-0.13,1.459-0.389c0.404-0.259,0.779-0.779,1.129-1.562
			l0.178-0.42h1.096l-1.045,4.46H36.023z"/>
		<path fill="#FFFFFF" d="M50.124,27.113l0.407-1.962h6.792l-0.42,1.962H50.124z"/>
		<path fill="#FFFFFF" d="M56.095,33.242l0.549-2.115l6.129-5.53c1.623-1.462,2.761-2.728,3.415-3.798s0.981-2.243,0.981-3.517
			c0-0.808-0.217-1.447-0.65-1.918c-0.434-0.472-1.02-0.708-1.758-0.708c-2.006,0-3.242,1.313-3.709,3.938
			c-1.231,0-1.848-0.557-1.848-1.67c0-0.969,0.525-1.808,1.574-2.517s2.419-1.064,4.109-1.064c1.572,0,2.787,0.332,3.645,0.994
			c0.857,0.663,1.287,1.602,1.287,2.816c0,1.036-0.369,2.104-1.108,3.205s-2.179,2.605-4.32,4.518l-5.862,5.275h6.054
			c0.569,0,1.056-0.13,1.459-0.389s0.779-0.779,1.128-1.562l0.178-0.42h1.096l-1.045,4.46H56.095z"/>
		<path fill="#FFFFFF" d="M73.166,33.242l0.216-1.096h1.147c0.824,0,1.423-0.155,1.797-0.465c0.374-0.311,0.624-0.78,0.752-1.408
			l0.421-2.142h-8.041l0.242-1.07l10.691-12.45h2.51l-2.586,12.056h3.236l-0.307,1.465h-3.236l-0.445,2.243
			c-0.068,0.34-0.103,0.582-0.103,0.727c0,0.696,0.624,1.045,1.873,1.045h0.599l-0.229,1.096H73.166z M78.837,21.786
			c0.416-1.971,0.841-3.657,1.273-5.059c-0.722,1.096-1.486,2.094-2.293,2.994l-5.926,6.945h5.926L78.837,21.786z"/>
		<path fill="#FFFFFF" d="M98.12,29.305h-0.165c-1.25,2.795-2.877,4.192-4.881,4.192c-1.063,0-1.889-0.418-2.479-1.255
			c-0.591-0.837-0.886-2.008-0.886-3.511c0-2.396,0.745-4.617,2.236-6.665c1.491-2.047,3.337-3.071,5.536-3.071
			c1.182,0,2.201,0.314,3.059,0.943l1.147-0.663h0.841l-1.784,8.359c-0.255,1.198-0.382,2.162-0.382,2.894
			c0,0.883,0.284,1.325,0.854,1.325c0.492,0,1.121-0.226,1.887-0.676l0.471,0.765c-1.248,1.036-2.477,1.555-3.683,1.555
			c-1.359,0-2.039-0.722-2.039-2.166C97.852,30.779,97.941,30.104,98.12,29.305z M99.598,21.111
			c-0.399-0.628-1.058-0.942-1.976-0.942c-1.486,0-2.733,0.945-3.74,2.835c-1.006,1.891-1.51,3.834-1.51,5.83
			c0,2.014,0.548,3.021,1.645,3.021c0.865,0,1.775-0.642,2.727-1.925c0.951-1.282,1.58-2.685,1.886-4.205L99.598,21.111z"/>
		<path fill="#FFFFFF" d="M105.111,32.567l-1.172,0.752h-0.842l3.453-16.209c0.153-0.714,0.23-1.172,0.23-1.376
			c0-0.815-0.607-1.224-1.822-1.224h-0.217l0.242-1.096h4.932l-1.25,5.861c-0.178,0.842-0.492,1.992-0.942,3.454h0.128
			c1.282-2.489,2.875-3.734,4.778-3.734c1.036,0,1.848,0.399,2.434,1.198c0.587,0.799,0.88,1.971,0.88,3.517
			c0,2.422-0.748,4.658-2.243,6.71s-3.339,3.077-5.53,3.077C106.92,33.497,105.901,33.188,105.111,32.567z M106.029,31.395
			c0.525,0.62,1.201,0.93,2.025,0.93c1.512,0,2.762-0.964,3.746-2.893c0.986-1.928,1.479-3.844,1.479-5.747
			c0-2.03-0.548-3.045-1.644-3.045c-0.952,0-1.88,0.66-2.784,1.981c-0.904,1.32-1.473,2.521-1.701,3.6L106.029,31.395z"/>
		<path fill="#FFFFFF" d="M125.941,22.78c0-1.376-0.349-2.064-1.045-2.064c-0.808,0-1.664,0.794-2.568,2.383
			s-1.574,3.386-2.007,5.391l-0.981,4.753h-2.434l2.191-10.487c0.102-0.484,0.153-0.875,0.153-1.173
			c0-0.824-0.692-1.236-2.077-1.236h-0.217l0.242-1.096h4.613l-0.549,3.76h0.268c0.697-1.555,1.385-2.612,2.064-3.174
			c0.68-0.561,1.471-0.841,2.371-0.841c1.427,0,2.141,0.6,2.141,1.797C128.107,22.117,127.384,22.78,125.941,22.78z"/>
		<path fill="#FFFFFF" d="M128.281,20.346l0.229-1.096h4.678l-1.771,8.385c-0.264,1.249-0.396,2.214-0.396,2.894
			c0,0.883,0.289,1.325,0.866,1.325c0.502,0,1.126-0.226,1.874-0.676l0.472,0.765c-1.207,1.036-2.383,1.555-3.53,1.555
			c-0.646,0-1.168-0.233-1.567-0.701c-0.399-0.467-0.6-1.058-0.6-1.771c0-0.781,0.195-2.148,0.587-4.103l1.007-4.792
			c0.059-0.28,0.089-0.51,0.089-0.688c0-0.73-0.53-1.097-1.593-1.097H128.281z M132.511,16.638c-0.977,0-1.465-0.476-1.465-1.427
			c0-0.553,0.142-0.996,0.426-1.332c0.285-0.335,0.665-0.503,1.141-0.503c0.977,0,1.466,0.479,1.466,1.439
			c0,0.595-0.146,1.047-0.439,1.357C133.345,16.484,132.97,16.638,132.511,16.638z"/>
		<path fill="#FFFFFF" d="M135.933,14.51l0.23-1.096h4.932l-3.021,14.221c-0.264,1.241-0.396,2.205-0.396,2.894
			c0,0.883,0.289,1.325,0.867,1.325c0.501,0,1.125-0.226,1.873-0.676l0.471,0.765c-1.205,1.036-2.383,1.555-3.529,1.555
			c-0.629,0-1.145-0.229-1.549-0.688c-0.402-0.458-0.604-1.053-0.604-1.784c0-0.823,0.19-2.191,0.573-4.103l2.128-10.017
			c0.11-0.518,0.166-0.909,0.166-1.172c0-0.815-0.612-1.224-1.835-1.224H135.933z"/>
		<path fill="#FFFFFF" d="M144.958,33.242l0.548-2.115l6.13-5.53c1.622-1.462,2.76-2.728,3.414-3.798s0.982-2.243,0.982-3.517
			c0-0.808-0.217-1.447-0.65-1.918c-0.434-0.472-1.02-0.708-1.759-0.708c-2.005,0-3.241,1.313-3.708,3.938
			c-1.232,0-1.848-0.557-1.848-1.67c0-0.969,0.524-1.808,1.574-2.517c1.049-0.709,2.418-1.064,4.109-1.064
			c1.571,0,2.786,0.332,3.645,0.994c0.857,0.663,1.287,1.602,1.287,2.816c0,1.036-0.37,2.104-1.109,3.205
			c-0.738,1.101-2.179,2.605-4.32,4.518l-5.861,5.275h6.053c0.569,0,1.056-0.13,1.459-0.389c0.404-0.259,0.779-0.779,1.129-1.562
			l0.178-0.42h1.096l-1.045,4.46H144.958z"/>
		<path fill="#FFFFFF" d="M167.56,14.319c1.529,0,2.737,0.522,3.625,1.567s1.332,2.515,1.332,4.409c0,3.348-0.71,6.391-2.129,9.131
			c-1.418,2.739-3.291,4.109-5.619,4.109c-1.555,0-2.783-0.557-3.684-1.669c-0.9-1.113-1.35-2.664-1.35-4.651
			c0-3.348,0.722-6.333,2.166-8.959C163.345,15.631,165.232,14.319,167.56,14.319z M164.986,32.096c1.512,0,2.725-1.256,3.638-3.766
			c0.913-2.511,1.37-5.354,1.37-8.532c0-2.71-0.896-4.064-2.689-4.064c-1.52,0-2.739,1.262-3.656,3.784
			c-0.918,2.523-1.377,5.34-1.377,8.449C162.271,30.719,163.175,32.096,164.986,32.096z"/>
		<path fill="#FFFFFF" d="M183.088,14.51l-3.364,15.865c-0.068,0.323-0.102,0.565-0.102,0.727c0,0.696,0.629,1.045,1.886,1.045
			h1.401l-0.229,1.096h-9.711l0.204-1.096h1.39c0.823,0,1.422-0.155,1.797-0.465c0.373-0.311,0.623-0.78,0.751-1.408l2.039-9.608
			c0.298-1.394,0.62-2.761,0.969-4.104h-0.103c-1.096,1.079-1.911,1.801-2.446,2.166s-1.032,0.548-1.491,0.548
			c-0.696,0-1.045-0.467-1.045-1.401c1.189-0.289,2.613-0.96,4.27-2.014l2.115-1.351H183.088z"/>
		<path fill="#FFFFFF" d="M189.849,23.278c1.292-0.909,2.574-1.364,3.85-1.364c1.375,0,2.455,0.415,3.236,1.243
			s1.172,1.938,1.172,3.332c0,2.022-0.571,3.695-1.713,5.021c-1.144,1.325-2.695,1.988-4.658,1.988c-1.47,0-2.655-0.559-3.556-1.676
			c-0.9-1.117-1.351-2.661-1.351-4.632c0-3.509,0.844-6.526,2.529-9.055c1.687-2.527,3.816-3.791,6.391-3.791
			c1.24,0,2.218,0.226,2.932,0.676c0.713,0.45,1.07,1.011,1.07,1.682c0,1.3-0.761,1.95-2.281,1.95c0-1.181-0.148-1.983-0.446-2.408
			s-0.739-0.638-1.325-0.638C193.081,15.606,191.132,18.163,189.849,23.278z M189.57,24.755c-0.247,1.394-0.37,2.528-0.37,3.402
			c0,2.608,0.896,3.912,2.688,3.912c1.054,0,1.922-0.509,2.606-1.528c0.684-1.02,1.026-2.319,1.026-3.899
			c0-2.26-0.782-3.39-2.346-3.39C192.011,23.252,190.81,23.753,189.57,24.755z"/>
	</g>
</g>
</svg>
