<?xml version="1.0" encoding="utf-8"?>
<!-- Generator: Adobe Illustrator 17.0.0, SVG Export Plug-In . SVG Version: 6.00 Build 0)  -->
<!DOCTYPE svg PUBLIC "-//W3C//DTD SVG 1.1//EN" "http://www.w3.org/Graphics/SVG/1.1/DTD/svg11.dtd">
<svg version="1.1" id="Layer_1" xmlns="http://www.w3.org/2000/svg" xmlns:xlink="http://www.w3.org/1999/xlink" x="0px" y="0px"
	 width="824.724px" height="178.551px" viewBox="6.691 505.25 824.724 178.551"
	 enable-background="new 6.691 505.25 824.724 178.551" xml:space="preserve">
<polyline stroke="#FFFFFF" stroke-width="3" points="38.305,665.177 27.87,683.8 831.415,683.8 775.354,604.585 831.415,525.369 
	799.61,525.369 "/>
<g>
	<polygon fill="#FFFFFF" points="9.25,665.177 812.792,665.177 756.734,585.965 812.792,506.75 9.25,506.75 53.629,585.965 	"/>
	<path d="M815.691,666.677h-809l45.22-80.712L6.691,505.25h809l-57.119,80.715L815.691,666.677z M11.81,663.677h798.083
		l-54.996-77.712l54.996-77.715H11.81l43.539,77.715L11.81,663.677z"/>
</g>
<g>
	<path d="M82.157,621.445l1.98-7.642l22.146-19.982c5.864-5.283,9.98-9.857,12.343-13.724c2.363-3.866,3.541-8.105,3.541-12.708
		c0-2.92-0.784-5.229-2.345-6.93c-1.568-1.706-3.686-2.558-6.356-2.558c-7.245,0-11.711,4.744-13.398,14.229
		c-4.448,0-6.681-2.013-6.681-6.034c0-3.501,1.897-6.533,5.687-9.095c3.79-2.562,8.744-3.845,14.847-3.845
		c5.68,0,10.07,1.2,13.171,3.592c3.1,2.396,4.65,5.789,4.65,10.175c0,3.743-1.333,7.602-4,11.581
		c-2.674,3.978-7.877,9.413-15.61,16.325l-21.181,19.06h21.875c2.052,0,3.812-0.47,5.272-1.406c1.453-0.936,2.815-2.815,4.072-5.644
		l0.647-1.518h3.96l-3.776,16.116H82.157V621.445z"/>
	<path d="M130.164,621.445l1.98-7.642l22.15-19.982c5.861-5.283,9.973-9.857,12.336-13.724s3.548-8.105,3.548-12.708
		c0-2.92-0.784-5.229-2.349-6.93c-1.568-1.706-3.686-2.558-6.356-2.558c-7.245,0-11.711,4.744-13.398,14.229
		c-4.452,0-6.677-2.013-6.677-6.034c0-3.501,1.893-6.533,5.687-9.095c3.79-2.562,8.737-3.845,14.847-3.845
		c5.677,0,10.067,1.2,13.171,3.592c3.097,2.396,4.65,5.789,4.65,10.175c0,3.743-1.337,7.602-4.007,11.581
		c-2.667,3.978-7.874,9.413-15.61,16.325l-21.178,19.06h21.872c2.056,0,3.816-0.47,5.272-1.406c1.46-0.936,2.815-2.815,4.079-5.644
		l0.643-1.518h3.96l-3.776,16.116h-40.845V621.445z"/>
	<path d="M181.116,599.298l1.471-7.089h24.542l-1.518,7.089H181.116z"/>
	<path d="M202.691,621.445l1.984-7.642l22.146-19.982c5.864-5.283,9.976-9.857,12.34-13.724s3.545-8.105,3.545-12.708
		c0-2.92-0.784-5.229-2.349-6.93c-1.568-1.706-3.686-2.558-6.352-2.558c-7.248,0-11.715,4.744-13.402,14.229
		c-4.448,0-6.677-2.013-6.677-6.034c0-3.501,1.897-6.533,5.687-9.095s8.741-3.845,14.847-3.845c5.68,0,10.07,1.2,13.171,3.592
		c3.097,2.396,4.65,5.789,4.65,10.175c0,3.743-1.333,7.602-4.004,11.581c-2.67,3.978-7.874,9.413-15.61,16.325l-21.181,19.06h21.875
		c2.056,0,3.816-0.47,5.272-1.406c1.456-0.936,2.815-2.815,4.076-5.644l0.643-1.518h3.96l-3.776,16.116h-40.845V621.445z"/>
	<path d="M264.375,621.445l0.78-3.96h4.145c2.977,0,5.142-0.56,6.493-1.68c1.351-1.124,2.255-2.818,2.717-5.088l1.521-7.74h-29.055
		l0.874-3.866l38.63-44.986h9.07l-9.344,43.563h11.693l-1.109,5.294h-11.693l-1.608,8.105c-0.246,1.229-0.372,2.103-0.372,2.627
		c0,2.515,2.255,3.776,6.768,3.776h2.164l-0.827,3.96h-30.847V621.445z M284.866,580.05c1.503-7.122,3.039-13.214,4.6-18.28
		c-2.609,3.96-5.369,7.566-8.285,10.818l-21.413,25.095h21.413L284.866,580.05z"/>
	<path d="M354.542,607.219h-0.596c-4.517,10.099-10.396,15.147-17.637,15.147c-3.841,0-6.826-1.51-8.958-4.535
		c-2.135-3.024-3.201-7.256-3.201-12.686c0-8.658,2.692-16.683,8.079-24.083c5.388-7.397,12.058-11.097,20.004-11.097
		c4.271,0,7.953,1.135,11.053,3.407l4.145-2.396h3.039l-6.446,30.204c-0.921,4.329-1.38,7.812-1.38,10.457
		c0,3.191,1.026,4.788,3.086,4.788c1.778,0,4.051-0.817,6.818-2.443l1.702,2.764c-4.509,3.743-8.95,5.619-13.308,5.619
		c-4.911,0-7.368-2.609-7.368-7.827C353.574,612.545,353.896,610.106,354.542,607.219z M359.883,577.611
		c-1.442-2.269-3.823-3.404-7.14-3.404c-5.369,0-9.875,3.415-13.514,10.244c-3.635,6.833-5.456,13.854-5.456,21.066
		c0,7.277,1.98,10.916,5.944,10.916c3.126,0,6.414-2.32,9.854-6.956c3.436-4.632,5.709-9.702,6.815-15.194L359.883,577.611z"/>
	<path d="M379.803,619.006l-4.235,2.717h-3.042l12.477-58.569c0.553-2.58,0.831-4.235,0.831-4.972c0-2.945-2.193-4.423-6.584-4.423
		h-0.784l0.874-3.96h17.821l-4.517,21.178c-0.643,3.042-1.778,7.198-3.404,12.481h0.463c4.632-8.994,10.388-13.492,17.265-13.492
		c3.743,0,6.677,1.442,8.795,4.329c2.121,2.887,3.18,7.122,3.18,12.708c0,8.752-2.703,16.831-8.105,24.246
		s-12.065,11.118-19.982,11.118C386.34,622.366,382.658,621.25,379.803,619.006z M383.12,614.771c1.897,2.24,4.34,3.36,7.317,3.36
		c5.463,0,9.98-3.483,13.536-10.453c3.563-6.967,5.344-13.89,5.344-20.766c0-7.335-1.98-11.003-5.94-11.003
		c-3.44,0-6.793,2.385-10.06,7.158c-3.266,4.77-5.322,9.109-6.146,13.008L383.12,614.771z"/>
	<path d="M455.07,583.642c0-4.972-1.261-7.458-3.776-7.458c-2.92,0-6.013,2.869-9.279,8.611c-3.266,5.742-5.687,12.235-7.252,19.48
		l-3.545,17.174h-8.795l7.917-37.893c0.369-1.749,0.553-3.162,0.553-4.238c0-2.977-2.5-4.466-7.505-4.466h-0.784l0.874-3.96h16.668
		l-1.984,13.586h0.968c2.519-5.619,5.005-9.438,7.458-11.469c2.457-2.027,5.315-3.039,8.567-3.039c5.156,0,7.736,2.168,7.736,6.493
		C462.896,581.246,460.284,583.642,455.07,583.642z"/>
	<path d="M463.525,574.847l0.827-3.96h16.903l-6.399,30.298c-0.954,4.513-1.431,8-1.431,10.457c0,3.191,1.044,4.788,3.129,4.788
		c1.814,0,4.069-0.817,6.771-2.443l1.705,2.764c-4.361,3.743-8.611,5.619-12.755,5.619c-2.334,0-4.22-0.842-5.662-2.533
		c-1.442-1.687-2.168-3.823-2.168-6.399c0-2.822,0.705-7.761,2.121-14.826l3.639-17.315c0.213-1.012,0.322-1.843,0.322-2.486
		c0-2.638-1.915-3.964-5.756-3.964H463.525L463.525,574.847z M478.809,561.449c-3.53,0-5.294-1.72-5.294-5.156
		c0-1.998,0.513-3.599,1.539-4.813c1.03-1.211,2.403-1.818,4.123-1.818c3.53,0,5.297,1.731,5.297,5.2
		c0,2.15-0.528,3.783-1.586,4.903C481.823,560.892,480.468,561.449,478.809,561.449z"/>
	<path d="M491.174,553.759l0.831-3.96h17.821l-10.916,51.385c-0.954,4.484-1.431,7.967-1.431,10.457
		c0,3.191,1.044,4.788,3.133,4.788c1.81,0,4.065-0.817,6.768-2.443l1.702,2.764c-4.354,3.743-8.611,5.619-12.752,5.619
		c-2.273,0-4.137-0.827-5.597-2.486c-1.453-1.655-2.182-3.805-2.182-6.446c0-2.974,0.687-7.917,2.07-14.826l7.689-36.195
		c0.397-1.872,0.6-3.285,0.6-4.235c0-2.945-2.211-4.423-6.631-4.423L491.174,553.759L491.174,553.759z"/>
	<path d="M523.785,621.445l1.98-7.642l22.15-19.982c5.861-5.283,9.973-9.857,12.336-13.724s3.548-8.105,3.548-12.708
		c0-2.92-0.784-5.229-2.349-6.93c-1.568-1.706-3.686-2.558-6.356-2.558c-7.245,0-11.711,4.744-13.398,14.229
		c-4.452,0-6.677-2.013-6.677-6.034c0-3.501,1.893-6.533,5.687-9.095c3.79-2.562,8.737-3.845,14.847-3.845
		c5.677,0,10.067,1.2,13.171,3.592c3.097,2.396,4.65,5.789,4.65,10.175c0,3.743-1.337,7.602-4.007,11.581
		c-2.667,3.978-7.874,9.413-15.61,16.325l-21.178,19.06h21.872c2.056,0,3.816-0.47,5.272-1.406c1.46-0.936,2.815-2.815,4.079-5.644
		l0.643-1.518h3.96l-3.776,16.116h-40.845V621.445z"/>
	<path d="M605.454,553.069c5.525,0,9.89,1.886,13.098,5.662c3.209,3.776,4.813,9.088,4.813,15.931
		c0,12.097-2.566,23.093-7.693,32.994c-5.124,9.897-11.892,14.847-20.303,14.847c-5.619,0-10.056-2.013-13.312-6.031
		c-3.252-4.022-4.878-9.626-4.878-16.806c0-12.098,2.609-22.883,7.827-32.372C590.223,557.81,597.042,553.069,605.454,553.069z
		 M596.153,617.304c5.463,0,9.846-4.538,13.145-13.608c3.299-9.073,4.95-19.346,4.95-30.829c0-9.792-3.238-14.685-9.716-14.685
		c-5.492,0-9.897,4.56-13.21,13.673c-3.317,9.117-4.976,19.295-4.976,30.529C586.343,612.328,589.609,617.304,596.153,617.304z"/>
	<path d="M661.562,553.759l-12.155,57.326c-0.246,1.167-0.369,2.042-0.369,2.627c0,2.515,2.273,3.776,6.815,3.776h5.062l-0.827,3.96
		h-35.089l0.737-3.96h5.023c2.974,0,5.138-0.56,6.493-1.68c1.348-1.124,2.251-2.818,2.714-5.088l7.368-34.717
		c1.077-5.037,2.24-9.976,3.501-14.829h-0.372c-3.96,3.899-6.905,6.508-8.838,7.827c-1.933,1.319-3.729,1.98-5.388,1.98
		c-2.515,0-3.776-1.687-3.776-5.062c4.296-1.044,9.442-3.469,15.429-7.277l7.642-4.882H661.562z"/>
	<path d="M685.992,585.441c4.668-3.285,9.301-4.929,13.911-4.929c4.968,0,8.871,1.5,11.693,4.491
		c2.822,2.992,4.235,7.003,4.235,12.04c0,7.306-2.063,13.351-6.19,18.143c-4.134,4.788-9.738,7.183-16.831,7.183
		c-5.312,0-9.593-2.02-12.849-6.056c-3.252-4.036-4.882-9.615-4.882-16.737c0-12.679,3.05-23.581,9.138-32.719
		c6.096-9.131,13.789-13.698,23.093-13.698c4.481,0,8.014,0.817,10.594,2.443c2.576,1.626,3.866,3.653,3.866,6.078
		c0,4.697-2.75,7.046-8.242,7.046c0-4.267-0.535-7.165-1.612-8.701c-1.077-1.536-2.67-2.305-4.788-2.305
		C697.67,557.72,690.628,566.959,685.992,585.441z M684.984,590.778c-0.892,5.037-1.337,9.135-1.337,12.293
		c0,9.424,3.238,14.135,9.713,14.135c3.808,0,6.945-1.839,9.416-5.521c2.472-3.686,3.707-8.379,3.707-14.088
		c0-8.166-2.826-12.249-8.477-12.249C693.804,585.347,689.464,587.158,684.984,590.778z"/>
</g>
</svg>
