<?xml version="1.0" encoding="utf-8"?>
<!-- Generator: Adobe Illustrator 17.1.0, SVG Export Plug-In . SVG Version: 6.00 Build 0)  -->
<!DOCTYPE svg PUBLIC "-//W3C//DTD SVG 1.1//EN" "http://www.w3.org/Graphics/SVG/1.1/DTD/svg11.dtd">
<svg version="1.1" id="Layer_1" xmlns="http://www.w3.org/2000/svg" xmlns:xlink="http://www.w3.org/1999/xlink" x="0px" y="0px"
	 viewBox="0 0 199.673 33.416" enable-background="new 0 0 199.673 33.416" xml:space="preserve">
<g>
	<g>
		<path d="M7.905,1c2.073,0,3.844,0.243,5.315,0.729c1.471,0.486,2.68,1.17,3.627,2.053c0.946,0.883,1.637,1.951,2.072,3.205
			c0.435,1.253,0.652,2.647,0.652,4.183c0,1.612-0.224,3.07-0.671,4.375c-0.448,1.305-1.151,2.418-2.111,3.339
			s-2.201,1.631-3.723,2.13c-1.522,0.499-3.358,0.749-5.507,0.749c-1.254,0-2.374-0.045-3.358-0.135
			c-0.985-0.09-2.015-0.211-3.09-0.364V1.537c1.075-0.128,2.213-0.249,3.416-0.364C5.73,1.058,6.856,1,7.905,1z M7.599,16.274
			c0.102,0,0.236,0.013,0.403,0.038c0.166,0.026,0.416,0.038,0.748,0.038c1.433,0,2.501-0.402,3.205-1.208
			c0.704-0.807,1.056-2.131,1.056-3.973c0-1.637-0.346-2.833-1.036-3.588c-0.691-0.755-1.676-1.133-2.955-1.133
			c-0.307,0-0.589,0.014-0.845,0.039S7.726,6.539,7.599,6.564V16.274z"/>
		<path d="M21.951,1.537c1.203-0.153,2.45-0.281,3.742-0.384C26.985,1.052,28.207,1,29.358,1c3.095,0,5.417,0.582,6.965,1.746
			c1.548,1.164,2.322,2.796,2.322,4.894c0,0.793-0.09,1.483-0.269,2.072c-0.179,0.589-0.397,1.094-0.652,1.516
			c-0.256,0.422-0.524,0.762-0.806,1.017c-0.282,0.257-0.512,0.461-0.691,0.614l4.375,8.366c-0.512,0.103-1.081,0.179-1.708,0.23
			c-0.627,0.051-1.234,0.077-1.823,0.077c-0.717,0-1.407-0.026-2.072-0.077c-0.666-0.052-1.216-0.128-1.65-0.23l-4.26-9.057
			l0.537-0.308c0.896-0.511,1.509-1.055,1.842-1.631c0.332-0.575,0.499-1.195,0.499-1.861c0-0.665-0.199-1.209-0.595-1.631
			c-0.397-0.422-1.03-0.633-1.899-0.633c-0.486,0-0.858,0.025-1.113,0.076v15.083c-0.666,0.127-1.266,0.211-1.804,0.249
			c-0.537,0.038-1.011,0.058-1.42,0.058c-0.435,0-0.908-0.02-1.42-0.058c-0.512-0.038-1.101-0.122-1.766-0.249V1.537z"/>
		<path d="M58.679,20.381c-0.435,0.153-0.953,0.307-1.554,0.46c-0.602,0.154-1.241,0.302-1.919,0.441
			c-0.678,0.141-1.375,0.25-2.091,0.326c-0.717,0.077-1.42,0.115-2.111,0.115c-1.305,0-2.559-0.103-3.761-0.307
			c-1.203-0.204-2.258-0.62-3.166-1.247c-0.909-0.627-1.631-1.535-2.168-2.726c-0.537-1.189-0.806-2.782-0.806-4.777V1.46
			c0.563-0.127,1.119-0.217,1.669-0.269c0.55-0.051,1.081-0.076,1.593-0.076c0.486,0,1.011,0.025,1.574,0.076
			c0.563,0.052,1.113,0.142,1.65,0.269v10.67c0,1.535,0.255,2.584,0.767,3.146c0.512,0.563,1.292,0.845,2.341,0.845
			c0.435,0,0.768-0.013,0.998-0.039c0.23-0.024,0.396-0.051,0.499-0.076V1.46c0.563-0.127,1.119-0.217,1.669-0.269
			c0.55-0.051,1.081-0.076,1.593-0.076c0.486,0,1.01,0.025,1.574,0.076c0.563,0.052,1.113,0.142,1.65,0.269V20.381z"/>
		<path d="M62.018,1.537c1.177-0.179,2.386-0.313,3.627-0.403C66.885,1.045,68.082,1,69.233,1c1.176,0,2.328,0.109,3.454,0.326
			c1.125,0.218,2.136,0.614,3.032,1.189c0.895,0.576,1.618,1.369,2.168,2.38c0.55,1.011,0.825,2.321,0.825,3.934
			c0,1.458-0.25,2.687-0.749,3.685c-0.499,0.997-1.158,1.804-1.977,2.417c-0.819,0.614-1.746,1.056-2.782,1.324
			c-1.036,0.269-2.092,0.403-3.167,0.403c-0.435,0-0.806-0.013-1.113-0.038s-0.499-0.052-0.576-0.077v4.721
			c-0.666,0.127-1.26,0.211-1.785,0.249s-0.992,0.058-1.401,0.058c-0.435,0-0.902-0.02-1.4-0.058
			c-0.499-0.038-1.082-0.122-1.747-0.249V1.537z M68.35,11.707c0.128,0.026,0.288,0.045,0.48,0.058
			c0.192,0.014,0.351,0.02,0.479,0.02c0.896,0,1.631-0.224,2.207-0.672c0.576-0.447,0.864-1.209,0.864-2.283
			c0-0.921-0.288-1.631-0.864-2.13S70.23,5.95,69.386,5.95c-0.103,0-0.25,0-0.441,0s-0.39,0.014-0.595,0.039V11.707z"/>
		<path d="M79.479,14.815c0-1.253,0.269-2.289,0.806-3.108c0.538-0.818,1.229-1.471,2.073-1.957
			c0.844-0.485,1.778-0.825,2.801-1.017c1.023-0.192,2.021-0.288,2.994-0.288h2.341c-0.025-0.461-0.153-0.845-0.383-1.151
			c-0.23-0.307-0.525-0.543-0.883-0.71c-0.359-0.166-0.755-0.281-1.19-0.346c-0.435-0.063-0.883-0.096-1.343-0.096
			c-0.614,0-1.331,0.07-2.149,0.211c-0.819,0.141-1.664,0.364-2.533,0.672c-0.23-0.435-0.429-0.831-0.595-1.189
			c-0.167-0.358-0.294-0.723-0.384-1.094c-0.09-0.371-0.153-0.755-0.192-1.151c-0.038-0.396-0.058-0.851-0.058-1.363
			c1.228-0.408,2.45-0.716,3.665-0.921C85.664,1.103,86.758,1,87.73,1c1.33,0,2.533,0.16,3.608,0.479
			c1.074,0.32,1.989,0.812,2.744,1.478c0.754,0.666,1.337,1.516,1.747,2.553c0.409,1.036,0.614,2.271,0.614,3.703v11.244
			c-0.973,0.282-2.149,0.563-3.531,0.845c-1.381,0.281-2.84,0.422-4.375,0.422c-1.331,0-2.552-0.121-3.665-0.364
			s-2.066-0.633-2.859-1.171c-0.793-0.537-1.414-1.247-1.861-2.13S79.479,16.096,79.479,14.815z M88.537,16.965
			c0.23,0,0.563-0.025,0.998-0.076c0.435-0.052,0.754-0.103,0.959-0.154v-4.221h-2.188c-0.896,0-1.65,0.191-2.264,0.575
			c-0.614,0.384-0.921,0.921-0.921,1.612c0,0.512,0.115,0.915,0.345,1.209c0.23,0.294,0.518,0.518,0.864,0.671
			c0.345,0.153,0.716,0.256,1.113,0.308C87.839,16.939,88.204,16.965,88.537,16.965z"/>
		<path d="M106.075,15.891h7.253c0.128,0.512,0.211,0.985,0.25,1.42c0.039,0.436,0.058,0.857,0.058,1.267s-0.019,0.838-0.058,1.285
			c-0.038,0.448-0.122,0.928-0.25,1.439H99.589L99.627,1.46c0.563-0.127,1.119-0.217,1.669-0.269
			c0.55-0.051,1.081-0.076,1.593-0.076c0.486,0,1.01,0.025,1.573,0.076c0.563,0.052,1.113,0.142,1.65,0.269L106.075,15.891z"/>
		<path d="M114.058,11.4c0-1.535,0.217-2.942,0.652-4.222c0.435-1.279,1.074-2.373,1.919-3.281c0.844-0.908,1.88-1.618,3.108-2.13
			S122.373,1,123.959,1c0.537,0,1.049,0.013,1.535,0.038c0.485,0.026,0.965,0.077,1.439,0.153c0.473,0.077,0.959,0.192,1.458,0.346
			c0.499,0.153,1.055,0.346,1.669,0.576c0.051,0.87-0.026,1.733-0.23,2.59c-0.205,0.857-0.524,1.695-0.959,2.514
			c-0.435-0.153-0.825-0.274-1.17-0.364c-0.345-0.09-0.671-0.159-0.979-0.211c-0.307-0.051-0.608-0.083-0.902-0.096
			c-0.294-0.013-0.608-0.02-0.94-0.02c-1.228,0-2.245,0.364-3.051,1.094c-0.806,0.729-1.209,1.989-1.209,3.78
			c0,0.946,0.121,1.733,0.364,2.36s0.563,1.119,0.959,1.478c0.396,0.358,0.857,0.614,1.382,0.768c0.524,0.153,1.081,0.23,1.669,0.23
			c0.742,0,1.388-0.064,1.938-0.192c0.55-0.128,1.196-0.332,1.938-0.614c0.435,0.691,0.78,1.465,1.036,2.322
			s0.384,1.836,0.384,2.936c-1.177,0.461-2.251,0.755-3.224,0.883c-0.973,0.128-1.945,0.192-2.917,0.192
			c-1.638,0-3.083-0.244-4.337-0.729c-1.254-0.485-2.309-1.184-3.166-2.092c-0.857-0.908-1.503-1.995-1.938-3.262
			C114.275,14.413,114.058,12.987,114.058,11.4z"/>
		<path d="M131.136,14.815c0-1.253,0.269-2.289,0.806-3.108c0.538-0.818,1.229-1.471,2.073-1.957
			c0.844-0.485,1.778-0.825,2.801-1.017c1.023-0.192,2.021-0.288,2.994-0.288h2.341c-0.025-0.461-0.153-0.845-0.383-1.151
			c-0.23-0.307-0.525-0.543-0.883-0.71c-0.359-0.166-0.755-0.281-1.19-0.346c-0.435-0.063-0.883-0.096-1.343-0.096
			c-0.614,0-1.331,0.07-2.149,0.211c-0.819,0.141-1.664,0.364-2.533,0.672c-0.23-0.435-0.429-0.831-0.595-1.189
			c-0.167-0.358-0.294-0.723-0.384-1.094c-0.09-0.371-0.153-0.755-0.192-1.151c-0.038-0.396-0.058-0.851-0.058-1.363
			c1.228-0.408,2.45-0.716,3.665-0.921C137.32,1.103,138.414,1,139.387,1c1.33,0,2.533,0.16,3.608,0.479
			c1.074,0.32,1.989,0.812,2.744,1.478c0.754,0.666,1.337,1.516,1.747,2.553c0.409,1.036,0.614,2.271,0.614,3.703v11.244
			c-0.973,0.282-2.149,0.563-3.531,0.845c-1.381,0.281-2.84,0.422-4.375,0.422c-1.331,0-2.552-0.121-3.665-0.364
			s-2.066-0.633-2.859-1.171c-0.793-0.537-1.414-1.247-1.861-2.13S131.136,16.096,131.136,14.815z M140.193,16.965
			c0.23,0,0.563-0.025,0.998-0.076c0.435-0.052,0.754-0.103,0.959-0.154v-4.221h-2.188c-0.896,0-1.65,0.191-2.264,0.575
			c-0.614,0.384-0.921,0.921-0.921,1.612c0,0.512,0.115,0.915,0.345,1.209c0.23,0.294,0.518,0.518,0.864,0.671
			c0.345,0.153,0.716,0.256,1.113,0.308C139.496,16.939,139.86,16.965,140.193,16.965z"/>
		<path d="M159.228,1.076c1.049,0,2.085,0.084,3.108,0.25c1.023,0.167,1.97,0.506,2.84,1.017c0.665-0.332,1.445-0.626,2.341-0.883
			c0.895-0.255,1.906-0.384,3.032-0.384c0.998,0,2.027,0.097,3.089,0.288c1.062,0.192,2.021,0.595,2.878,1.209
			c0.857,0.614,1.561,1.497,2.111,2.648c0.55,1.151,0.825,2.674,0.825,4.566v11.476c-0.666,0.127-1.267,0.211-1.804,0.249
			c-0.538,0.038-1.011,0.058-1.42,0.058c-0.436,0-0.921-0.02-1.458-0.058s-1.139-0.122-1.804-0.249V10.48
			c0-1.356-0.23-2.328-0.691-2.917c-0.46-0.588-1.215-0.883-2.264-0.883c-0.359,0-0.71,0.038-1.056,0.115
			c-0.345,0.077-0.582,0.141-0.71,0.192c0.23,0.896,0.346,1.918,0.346,3.069v11.207c-0.666,0.127-1.267,0.211-1.804,0.249
			c-0.538,0.038-1.011,0.058-1.42,0.058c-0.435,0-0.921-0.02-1.458-0.058c-0.538-0.038-1.139-0.122-1.804-0.249V10.48
			c0-1.356-0.218-2.328-0.653-2.917c-0.435-0.588-1.177-0.883-2.226-0.883c-0.282,0-0.583,0.026-0.902,0.077
			c-0.32,0.052-0.518,0.103-0.595,0.153v14.354c-0.666,0.127-1.267,0.211-1.804,0.249c-0.537,0.038-1.011,0.058-1.42,0.058
			c-0.435,0-0.921-0.02-1.458-0.058c-0.538-0.038-1.139-0.122-1.804-0.249V2.42c0.896-0.307,1.97-0.607,3.224-0.902
			C155.722,1.225,157.309,1.076,159.228,1.076z"/>
		<path d="M182.6,1.537c1.177-0.179,2.386-0.313,3.627-0.403C187.467,1.045,188.664,1,189.815,1c1.176,0,2.328,0.109,3.454,0.326
			c1.125,0.218,2.136,0.614,3.032,1.189c0.895,0.576,1.618,1.369,2.168,2.38c0.55,1.011,0.825,2.321,0.825,3.934
			c0,1.458-0.25,2.687-0.749,3.685c-0.499,0.997-1.158,1.804-1.977,2.417c-0.819,0.614-1.746,1.056-2.782,1.324
			c-1.036,0.269-2.092,0.403-3.167,0.403c-0.435,0-0.806-0.013-1.113-0.038s-0.499-0.052-0.576-0.077v4.721
			c-0.666,0.127-1.26,0.211-1.785,0.249s-0.992,0.058-1.401,0.058c-0.435,0-0.902-0.02-1.4-0.058
			c-0.499-0.038-1.082-0.122-1.747-0.249V1.537z M188.932,11.707c0.128,0.026,0.288,0.045,0.48,0.058
			c0.192,0.014,0.351,0.02,0.479,0.02c0.896,0,1.631-0.224,2.207-0.672c0.576-0.447,0.864-1.209,0.864-2.283
			c0-0.921-0.288-1.631-0.864-2.13s-1.286-0.749-2.13-0.749c-0.103,0-0.25,0-0.441,0s-0.39,0.014-0.595,0.039V11.707z"/>
	</g>
	<g>
		<path d="M5.866,28.813c0.242-0.029,0.48-0.044,0.713-0.044c0.231,0,0.464,0.015,0.696,0.044v3.804
			c-0.368,0.155-0.765,0.265-1.19,0.327s-0.838,0.095-1.234,0.095c-0.639,0-1.211-0.088-1.713-0.262
			c-0.504-0.174-0.933-0.436-1.285-0.784c-0.354-0.349-0.625-0.781-0.814-1.3C0.85,30.175,0.755,29.578,0.755,28.9
			c0-0.591,0.093-1.138,0.276-1.641c0.185-0.504,0.448-0.941,0.792-1.314c0.344-0.372,0.762-0.663,1.256-0.871
			s1.051-0.313,1.67-0.313c0.783,0,1.486,0.121,2.105,0.363c-0.02,0.174-0.057,0.349-0.109,0.522
			c-0.053,0.175-0.128,0.373-0.225,0.596c-0.252-0.077-0.496-0.141-0.733-0.188c-0.237-0.049-0.535-0.073-0.894-0.073
			c-0.455,0-0.847,0.075-1.176,0.226c-0.329,0.149-0.603,0.355-0.82,0.617c-0.218,0.261-0.38,0.571-0.486,0.929
			c-0.107,0.358-0.16,0.741-0.16,1.147c0,0.949,0.23,1.67,0.689,2.163c0.461,0.494,1.121,0.741,1.982,0.741
			c0.164,0,0.329-0.008,0.494-0.022c0.164-0.014,0.314-0.041,0.449-0.079V28.813z"/>
		<path d="M9.018,24.936c0.357-0.049,0.716-0.085,1.074-0.109c0.357-0.024,0.726-0.036,1.104-0.036c0.455,0,0.883,0.049,1.285,0.146
			c0.401,0.097,0.755,0.244,1.06,0.442c0.306,0.198,0.545,0.455,0.719,0.77c0.175,0.314,0.262,0.689,0.262,1.126
			c0,0.319-0.046,0.603-0.138,0.849c-0.092,0.247-0.211,0.46-0.355,0.64c-0.146,0.179-0.311,0.336-0.494,0.472
			s-0.368,0.252-0.553,0.349c-0.028,0.02-0.057,0.034-0.086,0.043c-0.029,0.01-0.059,0.024-0.088,0.044l2.367,3.224
			c-0.116,0.02-0.244,0.029-0.385,0.029s-0.288,0-0.443,0c-0.135,0-0.266,0-0.392,0s-0.252-0.01-0.378-0.029l-2.613-3.543v-0.059
			c0.232-0.077,0.472-0.167,0.719-0.269c0.246-0.102,0.475-0.225,0.683-0.37s0.38-0.319,0.515-0.522
			c0.137-0.203,0.204-0.45,0.204-0.74c0-0.445-0.169-0.794-0.509-1.046c-0.338-0.252-0.789-0.378-1.35-0.378
			c-0.137,0-0.27,0.005-0.4,0.015c-0.13,0.01-0.264,0.024-0.398,0.044v6.868c-0.223,0.029-0.45,0.044-0.683,0.044
			c-0.242,0-0.484-0.015-0.726-0.044V24.936z"/>
		<path d="M18.049,24.936c0.135-0.02,0.283-0.034,0.442-0.044c0.16-0.01,0.298-0.015,0.414-0.015c0.106,0,0.237,0.005,0.392,0.015
			c0.155,0.01,0.291,0.024,0.407,0.044l2.86,7.957c-0.078,0.02-0.198,0.034-0.363,0.044c-0.164,0.009-0.29,0.014-0.377,0.014
			c-0.136,0-0.271-0.005-0.406-0.014c-0.137-0.01-0.268-0.024-0.393-0.044l-0.552-1.655h-3.267l-0.523,1.655
			c-0.126,0.02-0.262,0.034-0.406,0.044c-0.146,0.009-0.281,0.014-0.406,0.014c-0.107,0-0.221-0.005-0.342-0.014
			c-0.121-0.01-0.24-0.024-0.355-0.044L18.049,24.936z M20.126,30.091l-1.293-3.949l-1.277,3.949H20.126z"/>
		<path d="M23.552,24.95c0.106-0.019,0.213-0.033,0.319-0.043s0.213-0.015,0.319-0.015c0.242,0,0.46,0.02,0.653,0.058l3.906,5.736
			V24.95c0.097-0.019,0.196-0.033,0.298-0.043s0.22-0.015,0.355-0.015c0.165,0,0.296,0.005,0.392,0.015
			c0.098,0.01,0.175,0.024,0.232,0.043v7.943c-0.086,0.02-0.186,0.034-0.297,0.044c-0.111,0.009-0.211,0.014-0.298,0.014
			c-0.252,0-0.475-0.02-0.668-0.058l-3.921-5.692v5.692c-0.106,0.02-0.213,0.034-0.319,0.044c-0.106,0.009-0.218,0.014-0.334,0.014
			c-0.106,0-0.216-0.005-0.327-0.014c-0.111-0.01-0.215-0.024-0.312-0.044V24.95z"/>
		<path d="M33.891,24.936c0.135-0.02,0.283-0.034,0.442-0.044c0.16-0.01,0.298-0.015,0.414-0.015c0.106,0,0.237,0.005,0.392,0.015
			c0.155,0.01,0.291,0.024,0.407,0.044l2.86,7.957c-0.078,0.02-0.198,0.034-0.363,0.044c-0.164,0.009-0.29,0.014-0.377,0.014
			c-0.136,0-0.271-0.005-0.406-0.014c-0.137-0.01-0.268-0.024-0.393-0.044l-0.552-1.655h-3.267l-0.523,1.655
			c-0.126,0.02-0.262,0.034-0.406,0.044c-0.146,0.009-0.281,0.014-0.406,0.014c-0.107,0-0.221-0.005-0.342-0.014
			c-0.121-0.01-0.24-0.024-0.355-0.044L33.891,24.936z M35.967,30.091l-1.293-3.949l-1.277,3.949H35.967z"/>
		<path d="M39.395,24.936c0.145-0.01,0.312-0.024,0.5-0.044c0.189-0.02,0.385-0.034,0.588-0.044c0.204-0.009,0.407-0.019,0.61-0.028
			c0.204-0.01,0.392-0.015,0.566-0.015c0.716,0,1.349,0.097,1.896,0.29c0.547,0.194,1.002,0.47,1.364,0.828
			c0.363,0.358,0.637,0.786,0.821,1.285c0.184,0.498,0.275,1.053,0.275,1.662c0,1.298-0.373,2.316-1.118,3.057
			c-0.745,0.741-1.854,1.111-3.325,1.111c-0.378,0-0.766-0.013-1.162-0.036c-0.396-0.024-0.735-0.062-1.016-0.109V24.936z
			 M40.817,31.746c0.107,0.02,0.245,0.036,0.414,0.051c0.17,0.015,0.327,0.022,0.473,0.022c0.416,0,0.799-0.056,1.146-0.167
			c0.349-0.111,0.646-0.286,0.894-0.523c0.247-0.236,0.44-0.542,0.581-0.914c0.14-0.373,0.21-0.825,0.21-1.358
			c0-0.474-0.07-0.888-0.21-1.241c-0.141-0.354-0.334-0.646-0.581-0.879s-0.542-0.406-0.886-0.522s-0.725-0.174-1.141-0.174
			c-0.125,0-0.275,0.005-0.449,0.015c-0.175,0.01-0.324,0.023-0.451,0.043V31.746z"/>
		<path d="M49.196,24.936c0.136-0.02,0.283-0.034,0.443-0.044s0.297-0.015,0.414-0.015c0.105,0,0.236,0.005,0.392,0.015
			s0.29,0.024,0.407,0.044l2.859,7.957c-0.077,0.02-0.197,0.034-0.362,0.044c-0.165,0.009-0.29,0.014-0.378,0.014
			c-0.135,0-0.271-0.005-0.406-0.014c-0.136-0.01-0.267-0.024-0.393-0.044l-0.551-1.655h-3.268l-0.523,1.655
			c-0.125,0.02-0.261,0.034-0.406,0.044c-0.145,0.009-0.281,0.014-0.406,0.014c-0.107,0-0.221-0.005-0.342-0.014
			c-0.121-0.01-0.239-0.024-0.355-0.044L49.196,24.936z M51.272,30.091l-1.292-3.949l-1.278,3.949H51.272z"/>
		<path d="M58.91,28.9c0,0.581,0.044,1.11,0.131,1.59s0.19,0.905,0.312,1.278c0.121,0.372,0.25,0.691,0.386,0.958
			s0.247,0.477,0.334,0.632c-0.087,0.02-0.188,0.033-0.306,0.043c-0.115,0.01-0.227,0.015-0.334,0.015
			c-0.105,0-0.22-0.005-0.341-0.015s-0.235-0.023-0.341-0.043c-0.165-0.203-0.32-0.465-0.465-0.784
			c-0.146-0.319-0.271-0.673-0.378-1.061c-0.106-0.387-0.193-0.803-0.261-1.248c-0.068-0.445-0.102-0.9-0.102-1.365
			s0.033-0.922,0.102-1.372c0.067-0.45,0.154-0.869,0.261-1.256c0.106-0.388,0.232-0.741,0.378-1.061
			c0.145-0.319,0.3-0.581,0.465-0.784c0.105-0.02,0.22-0.033,0.341-0.043s0.235-0.015,0.341-0.015c0.107,0,0.213,0.005,0.32,0.015
			c0.105,0.01,0.213,0.023,0.319,0.043c-0.087,0.155-0.198,0.365-0.334,0.632s-0.265,0.586-0.386,0.958
			c-0.121,0.373-0.225,0.802-0.312,1.285C58.954,27.787,58.91,28.319,58.91,28.9z"/>
		<path d="M60.841,32.617c0.019-0.193,0.058-0.389,0.116-0.588c0.058-0.198,0.125-0.395,0.203-0.588
			c0.281,0.106,0.598,0.203,0.951,0.29c0.354,0.088,0.699,0.131,1.038,0.131c0.639,0,1.091-0.111,1.358-0.334
			c0.266-0.223,0.398-0.503,0.398-0.842c0-0.319-0.097-0.568-0.29-0.748c-0.194-0.179-0.46-0.331-0.799-0.457l-0.827-0.306
			c-0.35-0.125-0.645-0.256-0.887-0.392s-0.442-0.285-0.602-0.45c-0.16-0.164-0.276-0.354-0.35-0.566
			c-0.072-0.213-0.108-0.46-0.108-0.74c0-0.319,0.06-0.615,0.182-0.886c0.12-0.271,0.3-0.509,0.537-0.712s0.53-0.363,0.878-0.479
			c0.35-0.115,0.746-0.174,1.191-0.174c0.338,0,0.714,0.036,1.125,0.109c0.412,0.072,0.777,0.177,1.097,0.312
			c-0.02,0.185-0.056,0.376-0.108,0.574c-0.055,0.198-0.119,0.385-0.197,0.559c-0.242-0.106-0.537-0.201-0.885-0.283
			c-0.35-0.082-0.668-0.123-0.959-0.123c-0.484,0-0.842,0.087-1.074,0.261c-0.232,0.175-0.349,0.412-0.349,0.712
			s0.092,0.518,0.276,0.653c0.184,0.136,0.426,0.262,0.726,0.378l1.03,0.406c0.252,0.097,0.489,0.206,0.713,0.327
			c0.222,0.121,0.418,0.266,0.588,0.436c0.169,0.169,0.302,0.37,0.398,0.603c0.098,0.232,0.146,0.508,0.146,0.827
			c0,0.368-0.07,0.707-0.21,1.017c-0.141,0.311-0.35,0.576-0.625,0.799s-0.612,0.397-1.01,0.522
			c-0.396,0.126-0.855,0.189-1.379,0.189c-0.445,0-0.854-0.039-1.227-0.116C61.536,32.859,61.18,32.753,60.841,32.617z"/>
		<path d="M67.855,24.936c0.3-0.039,0.642-0.073,1.023-0.102c0.382-0.029,0.772-0.044,1.169-0.044c0.475,0,0.922,0.049,1.344,0.146
			c0.421,0.097,0.789,0.254,1.104,0.472s0.561,0.501,0.74,0.85s0.269,0.779,0.269,1.292c0,0.514-0.095,0.954-0.283,1.321
			c-0.188,0.368-0.442,0.673-0.763,0.915c-0.318,0.242-0.688,0.421-1.104,0.537s-0.847,0.175-1.292,0.175c-0.136,0-0.269,0-0.399,0
			s-0.259-0.01-0.385-0.029v2.425c-0.223,0.038-0.455,0.058-0.697,0.058c-0.106,0-0.225-0.005-0.355-0.014
			c-0.131-0.01-0.254-0.024-0.37-0.044V24.936z M69.278,29.263c0.242,0.028,0.475,0.043,0.697,0.043
			c0.648,0,1.156-0.131,1.524-0.392c0.368-0.262,0.552-0.712,0.552-1.351c0-0.513-0.167-0.902-0.501-1.169s-0.815-0.399-1.444-0.399
			c-0.349,0-0.625,0.015-0.828,0.044V29.263z"/>
		<path d="M76.015,24.936c0.136-0.02,0.283-0.034,0.442-0.044c0.16-0.01,0.299-0.015,0.414-0.015c0.107,0,0.238,0.005,0.393,0.015
			s0.291,0.024,0.406,0.044l2.861,7.957c-0.078,0.02-0.199,0.034-0.363,0.044c-0.165,0.009-0.291,0.014-0.378,0.014
			c-0.136,0-0.271-0.005-0.406-0.014c-0.136-0.01-0.267-0.024-0.392-0.044l-0.553-1.655h-3.267l-0.522,1.655
			c-0.127,0.02-0.262,0.034-0.407,0.044c-0.146,0.009-0.28,0.014-0.406,0.014c-0.106,0-0.221-0.005-0.341-0.014
			c-0.121-0.01-0.24-0.024-0.356-0.044L76.015,24.936z M78.092,30.091l-1.293-3.949l-1.277,3.949H78.092z"/>
		<path d="M81.518,24.936c0.117-0.02,0.234-0.034,0.355-0.044s0.24-0.015,0.356-0.015c0.126,0,0.249,0.005,0.37,0.015
			s0.234,0.024,0.342,0.044v7.957c-0.107,0.02-0.221,0.034-0.342,0.044c-0.121,0.009-0.239,0.014-0.355,0.014
			c-0.136,0-0.264-0.005-0.385-0.014c-0.121-0.01-0.234-0.024-0.342-0.044V24.936z"/>
		<path d="M85.047,24.95c0.105-0.019,0.213-0.033,0.318-0.043c0.107-0.01,0.213-0.015,0.32-0.015c0.242,0,0.459,0.02,0.653,0.058
			l3.905,5.736V24.95c0.098-0.019,0.197-0.033,0.299-0.043s0.22-0.015,0.355-0.015c0.164,0,0.295,0.005,0.392,0.015
			s0.175,0.024,0.232,0.043v7.943c-0.087,0.02-0.187,0.034-0.298,0.044c-0.111,0.009-0.211,0.014-0.297,0.014
			c-0.252,0-0.475-0.02-0.668-0.058l-3.921-5.692v5.692c-0.106,0.02-0.214,0.034-0.319,0.044c-0.107,0.009-0.219,0.014-0.334,0.014
			c-0.107,0-0.216-0.005-0.327-0.014c-0.111-0.01-0.216-0.024-0.312-0.044V24.95z"/>
		<path d="M94.064,28.9c0-0.581-0.044-1.113-0.13-1.598c-0.088-0.483-0.191-0.912-0.313-1.285c-0.121-0.372-0.25-0.691-0.385-0.958
			c-0.137-0.267-0.247-0.477-0.334-0.632c0.105-0.02,0.213-0.033,0.318-0.043c0.107-0.01,0.213-0.015,0.32-0.015
			c0.106,0,0.22,0.005,0.341,0.015s0.235,0.023,0.341,0.043c0.155,0.203,0.308,0.465,0.458,0.784
			c0.149,0.319,0.278,0.673,0.385,1.061c0.106,0.387,0.194,0.806,0.261,1.256c0.068,0.45,0.103,0.907,0.103,1.372
			s-0.034,0.92-0.103,1.365c-0.066,0.445-0.154,0.861-0.261,1.248c-0.106,0.388-0.235,0.741-0.385,1.061
			c-0.15,0.319-0.303,0.581-0.458,0.784c-0.105,0.02-0.22,0.033-0.341,0.043s-0.234,0.015-0.341,0.015
			c-0.107,0-0.216-0.005-0.327-0.015s-0.216-0.023-0.312-0.043c0.087-0.155,0.197-0.365,0.334-0.632
			c0.135-0.267,0.264-0.586,0.385-0.958c0.121-0.373,0.225-0.799,0.313-1.278C94.02,30.01,94.064,29.481,94.064,28.9z"/>
		<path d="M99.713,32.748l2.266-2.309c0.387-0.396,0.714-0.74,0.979-1.031c0.267-0.29,0.479-0.549,0.639-0.776
			c0.16-0.228,0.273-0.438,0.342-0.632s0.102-0.392,0.102-0.596c0-0.9-0.586-1.35-1.757-1.35c-0.407,0-0.763,0.048-1.067,0.145
			s-0.622,0.223-0.951,0.378c-0.078-0.165-0.147-0.349-0.211-0.552c-0.063-0.203-0.104-0.393-0.123-0.566
			c0.311-0.146,0.666-0.278,1.067-0.399s0.878-0.182,1.431-0.182c0.455,0,0.871,0.046,1.248,0.138
			c0.378,0.093,0.702,0.237,0.973,0.436c0.271,0.199,0.482,0.448,0.633,0.748c0.149,0.301,0.225,0.653,0.225,1.061
			c0,0.513-0.154,1.043-0.465,1.59c-0.31,0.547-0.822,1.159-1.539,1.837l-1.045,1.002h3.455c0.02,0.097,0.034,0.196,0.044,0.298
			c0.009,0.102,0.015,0.205,0.015,0.312c0,0.098-0.006,0.196-0.015,0.298c-0.01,0.102-0.024,0.201-0.044,0.298H99.77L99.713,32.748z
			"/>
		<path d="M106.755,32.748l2.266-2.309c0.387-0.396,0.714-0.74,0.98-1.031c0.266-0.29,0.479-0.549,0.639-0.776
			s0.273-0.438,0.342-0.632c0.067-0.193,0.102-0.392,0.102-0.596c0-0.9-0.586-1.35-1.758-1.35c-0.406,0-0.762,0.048-1.066,0.145
			s-0.623,0.223-0.951,0.378c-0.078-0.165-0.148-0.349-0.211-0.552s-0.104-0.393-0.123-0.566c0.31-0.146,0.665-0.278,1.066-0.399
			c0.402-0.121,0.879-0.182,1.431-0.182c0.455,0,0.872,0.046,1.249,0.138c0.377,0.093,0.701,0.237,0.973,0.436
			c0.271,0.199,0.482,0.448,0.632,0.748c0.149,0.301,0.226,0.653,0.226,1.061c0,0.513-0.155,1.043-0.465,1.59
			c-0.311,0.547-0.823,1.159-1.539,1.837l-1.046,1.002h3.456c0.02,0.097,0.033,0.196,0.043,0.298s0.016,0.205,0.016,0.312
			c0,0.098-0.006,0.196-0.016,0.298s-0.023,0.201-0.043,0.298h-6.143L106.755,32.748z"/>
		<path d="M117.762,28.16c0.019,0.097,0.033,0.205,0.043,0.326s0.015,0.235,0.015,0.342s-0.005,0.22-0.015,0.341
			s-0.024,0.225-0.043,0.313h-3.762c-0.02-0.088-0.033-0.191-0.043-0.313s-0.015-0.234-0.015-0.341s0.005-0.221,0.015-0.342
			s0.023-0.229,0.043-0.326H117.762z"/>
		<path d="M118.386,32.748l2.266-2.309c0.387-0.396,0.714-0.74,0.979-1.031c0.267-0.29,0.479-0.549,0.639-0.776
			c0.16-0.228,0.273-0.438,0.342-0.632s0.102-0.392,0.102-0.596c0-0.9-0.586-1.35-1.757-1.35c-0.407,0-0.763,0.048-1.067,0.145
			s-0.622,0.223-0.951,0.378c-0.078-0.165-0.147-0.349-0.211-0.552c-0.063-0.203-0.104-0.393-0.123-0.566
			c0.311-0.146,0.666-0.278,1.067-0.399s0.878-0.182,1.431-0.182c0.455,0,0.871,0.046,1.248,0.138
			c0.378,0.093,0.702,0.237,0.973,0.436c0.271,0.199,0.482,0.448,0.633,0.748c0.149,0.301,0.225,0.653,0.225,1.061
			c0,0.513-0.154,1.043-0.465,1.59c-0.31,0.547-0.822,1.159-1.539,1.837l-1.045,1.002h3.455c0.02,0.097,0.034,0.196,0.044,0.298
			c0.009,0.102,0.015,0.205,0.015,0.312c0,0.098-0.006,0.196-0.015,0.298c-0.01,0.102-0.024,0.201-0.044,0.298h-6.143
			L118.386,32.748z"/>
		<path d="M125.502,31.136l3.253-6.418c0.184,0.02,0.392,0.07,0.624,0.152s0.445,0.182,0.64,0.298l-2.542,4.951h2.454v-2.207
			c0.106-0.02,0.218-0.031,0.334-0.036s0.228-0.008,0.334-0.008c0.242,0,0.475,0.015,0.697,0.044v2.207h1.264
			c0.02,0.087,0.033,0.182,0.043,0.283s0.015,0.196,0.015,0.283c0,0.097-0.005,0.206-0.015,0.326
			c-0.01,0.121-0.023,0.221-0.043,0.298h-1.264v1.583c-0.223,0.029-0.445,0.044-0.668,0.044c-0.107,0-0.223-0.003-0.349-0.008
			s-0.242-0.017-0.349-0.036V31.31h-4.313L125.502,31.136z"/>
		<path d="M138.962,24.936c0.137-0.02,0.283-0.034,0.443-0.044s0.298-0.015,0.414-0.015c0.106,0,0.237,0.005,0.393,0.015
			c0.154,0.01,0.29,0.024,0.406,0.044l2.86,7.957c-0.077,0.02-0.198,0.034-0.362,0.044c-0.166,0.009-0.291,0.014-0.379,0.014
			c-0.135,0-0.271-0.005-0.406-0.014c-0.135-0.01-0.266-0.024-0.392-0.044l-0.552-1.655h-3.268l-0.522,1.655
			c-0.126,0.02-0.261,0.034-0.407,0.044c-0.145,0.009-0.28,0.014-0.406,0.014c-0.106,0-0.221-0.005-0.341-0.014
			c-0.121-0.01-0.239-0.024-0.356-0.044L138.962,24.936z M141.039,30.091l-1.292-3.949l-1.278,3.949H141.039z"/>
		<path d="M144.465,24.936c0.252-0.039,0.566-0.07,0.943-0.095c0.378-0.024,0.779-0.036,1.205-0.036
			c0.455,0,0.877,0.041,1.264,0.123s0.719,0.208,0.994,0.378c0.277,0.169,0.492,0.38,0.646,0.632
			c0.155,0.251,0.232,0.552,0.232,0.899c0,0.504-0.141,0.918-0.421,1.242s-0.614,0.53-1.002,0.617
			c0.232,0.028,0.462,0.09,0.69,0.182c0.227,0.092,0.43,0.22,0.609,0.385c0.18,0.164,0.324,0.365,0.436,0.603
			s0.167,0.516,0.167,0.835c0,0.426-0.085,0.786-0.254,1.081c-0.169,0.296-0.407,0.538-0.712,0.727s-0.666,0.324-1.082,0.406
			s-0.866,0.124-1.35,0.124c-0.165,0-0.347-0.003-0.545-0.008c-0.199-0.005-0.402-0.015-0.609-0.028
			c-0.209-0.015-0.417-0.029-0.625-0.044s-0.404-0.036-0.588-0.065V24.936z M146.803,28.188c0.513,0,0.902-0.108,1.169-0.326
			s0.399-0.511,0.399-0.879c0-0.377-0.15-0.658-0.45-0.842s-0.741-0.276-1.321-0.276c-0.127,0-0.26,0.003-0.399,0.008
			c-0.141,0.005-0.255,0.017-0.341,0.036v2.279H146.803z M145.86,31.834c0.125,0.02,0.289,0.033,0.493,0.043
			c0.203,0.01,0.382,0.015,0.537,0.015c0.261,0,0.509-0.021,0.741-0.065s0.433-0.116,0.602-0.218c0.17-0.102,0.303-0.234,0.4-0.399
			c0.096-0.164,0.145-0.363,0.145-0.595c0-0.455-0.174-0.789-0.522-1.002s-0.813-0.32-1.394-0.32h-1.002V31.834z"/>
		<path d="M151.682,24.936c0.357-0.049,0.717-0.085,1.074-0.109c0.358-0.024,0.727-0.036,1.104-0.036
			c0.455,0,0.884,0.049,1.285,0.146c0.402,0.097,0.756,0.244,1.061,0.442s0.545,0.455,0.719,0.77s0.262,0.689,0.262,1.126
			c0,0.319-0.047,0.603-0.139,0.849c-0.092,0.247-0.211,0.46-0.355,0.64c-0.146,0.179-0.311,0.336-0.494,0.472
			s-0.367,0.252-0.552,0.349c-0.028,0.02-0.058,0.034-0.087,0.043c-0.029,0.01-0.059,0.024-0.087,0.044l2.366,3.224
			c-0.115,0.02-0.244,0.029-0.385,0.029s-0.287,0-0.442,0c-0.136,0-0.267,0-0.392,0c-0.127,0-0.252-0.01-0.378-0.029l-2.614-3.543
			v-0.059c0.232-0.077,0.473-0.167,0.719-0.269c0.247-0.102,0.475-0.225,0.684-0.37c0.207-0.146,0.379-0.319,0.515-0.522
			s0.204-0.45,0.204-0.74c0-0.445-0.17-0.794-0.509-1.046s-0.789-0.378-1.351-0.378c-0.136,0-0.269,0.005-0.399,0.015
			c-0.13,0.01-0.264,0.024-0.399,0.044v6.868c-0.223,0.029-0.449,0.044-0.682,0.044c-0.242,0-0.484-0.015-0.727-0.044V24.936z"/>
		<path d="M158.971,24.936c0.117-0.02,0.234-0.034,0.355-0.044s0.24-0.015,0.356-0.015c0.126,0,0.249,0.005,0.37,0.015
			s0.234,0.024,0.342,0.044v7.957c-0.107,0.02-0.221,0.034-0.342,0.044c-0.121,0.009-0.239,0.014-0.355,0.014
			c-0.136,0-0.264-0.005-0.385-0.014c-0.121-0.01-0.234-0.024-0.342-0.044V24.936z"/>
		<path d="M162.501,24.936c0.105-0.02,0.22-0.034,0.341-0.044c0.12-0.01,0.244-0.015,0.37-0.015c0.116,0,0.234,0.005,0.355,0.015
			s0.234,0.024,0.342,0.044v6.723h3.484c0.029,0.223,0.044,0.426,0.044,0.61c0,0.203-0.015,0.411-0.044,0.624h-4.893V24.936z"/>
		<path d="M170.907,32.748l2.266-2.309c0.387-0.396,0.714-0.74,0.98-1.031c0.266-0.29,0.479-0.549,0.639-0.776
			s0.273-0.438,0.342-0.632c0.067-0.193,0.102-0.392,0.102-0.596c0-0.9-0.586-1.35-1.758-1.35c-0.406,0-0.762,0.048-1.066,0.145
			s-0.623,0.223-0.951,0.378c-0.078-0.165-0.148-0.349-0.211-0.552s-0.104-0.393-0.123-0.566c0.31-0.146,0.665-0.278,1.066-0.399
			c0.402-0.121,0.879-0.182,1.431-0.182c0.455,0,0.872,0.046,1.249,0.138c0.377,0.093,0.701,0.237,0.973,0.436
			c0.271,0.199,0.482,0.448,0.632,0.748c0.149,0.301,0.226,0.653,0.226,1.061c0,0.513-0.155,1.043-0.465,1.59
			c-0.311,0.547-0.823,1.159-1.539,1.837l-1.046,1.002h3.456c0.02,0.097,0.033,0.196,0.043,0.298s0.016,0.205,0.016,0.312
			c0,0.098-0.006,0.196-0.016,0.298s-0.023,0.201-0.043,0.298h-6.143L170.907,32.748z"/>
		<path d="M181.565,33.039c-0.551,0-1.045-0.1-1.48-0.298s-0.805-0.477-1.104-0.835c-0.301-0.358-0.53-0.786-0.689-1.285
			c-0.16-0.498-0.24-1.048-0.24-1.648c0-0.6,0.082-1.151,0.246-1.655c0.165-0.503,0.402-0.937,0.713-1.3
			c0.309-0.362,0.684-0.644,1.125-0.842c0.439-0.198,0.937-0.298,1.488-0.298s1.045,0.1,1.48,0.298s0.807,0.479,1.111,0.842
			c0.305,0.363,0.537,0.797,0.697,1.3c0.16,0.504,0.239,1.056,0.239,1.655c0,0.601-0.085,1.15-0.254,1.648
			c-0.169,0.499-0.411,0.927-0.726,1.285c-0.315,0.358-0.693,0.637-1.133,0.835C182.598,32.939,182.108,33.039,181.565,33.039z
			 M181.594,31.862c0.6,0,1.094-0.234,1.48-0.704c0.388-0.47,0.582-1.198,0.582-2.186c0-0.503-0.051-0.937-0.152-1.3
			c-0.102-0.362-0.245-0.665-0.43-0.907c-0.184-0.242-0.4-0.421-0.652-0.537s-0.528-0.174-0.828-0.174
			c-0.629,0-1.138,0.234-1.524,0.704c-0.388,0.47-0.581,1.207-0.581,2.214c0,0.987,0.195,1.716,0.588,2.186
			S180.975,31.862,181.594,31.862z"/>
		<path d="M188.883,31.731v-4.907l-2.119,0.987c-0.175-0.193-0.301-0.375-0.379-0.545c-0.077-0.169-0.145-0.341-0.203-0.516
			l3.819-1.873h0.262v6.854h2.105c0.019,0.088,0.031,0.182,0.036,0.283s0.008,0.191,0.008,0.269c0,0.204-0.016,0.407-0.044,0.61
			h-5.692c-0.02-0.077-0.034-0.164-0.043-0.262c-0.01-0.097-0.016-0.193-0.016-0.29s0.006-0.196,0.016-0.298
			c0.009-0.102,0.023-0.205,0.043-0.313H188.883z"/>
		<path d="M194.707,28.435c0.213-0.193,0.481-0.368,0.806-0.522c0.324-0.155,0.719-0.232,1.184-0.232
			c0.349,0,0.688,0.051,1.017,0.152s0.622,0.259,0.878,0.472c0.257,0.213,0.463,0.486,0.617,0.82
			c0.155,0.334,0.232,0.729,0.232,1.184s-0.09,0.854-0.268,1.198c-0.18,0.344-0.414,0.632-0.705,0.864
			c-0.29,0.232-0.619,0.406-0.987,0.522s-0.745,0.174-1.132,0.174c-0.494,0-0.936-0.063-1.322-0.188s-0.719-0.321-0.994-0.588
			c-0.276-0.267-0.486-0.61-0.632-1.031s-0.218-0.927-0.218-1.518c0-0.648,0.102-1.261,0.305-1.837
			c0.203-0.575,0.508-1.084,0.915-1.524c0.406-0.44,0.909-0.804,1.511-1.089c0.6-0.285,1.297-0.467,2.09-0.545
			c0.049,0.088,0.082,0.182,0.102,0.283s0.034,0.201,0.044,0.298c0,0.078-0.005,0.167-0.015,0.269s-0.023,0.191-0.043,0.269
			c-0.397,0.049-0.777,0.134-1.141,0.254c-0.363,0.122-0.697,0.289-1.002,0.501c-0.305,0.214-0.566,0.47-0.783,0.771
			C194.946,27.69,194.794,28.039,194.707,28.435z M196.303,31.993c0.494,0,0.906-0.14,1.234-0.421
			c0.33-0.281,0.494-0.692,0.494-1.234c0-0.28-0.043-0.522-0.131-0.726c-0.087-0.204-0.205-0.371-0.355-0.501
			c-0.15-0.131-0.324-0.226-0.522-0.283c-0.198-0.059-0.409-0.088-0.632-0.088c-0.242,0-0.467,0.034-0.676,0.102
			c-0.208,0.068-0.392,0.17-0.551,0.306c-0.16,0.136-0.286,0.3-0.378,0.493c-0.093,0.194-0.138,0.417-0.138,0.668
			c0,0.543,0.145,0.959,0.436,1.249C195.375,31.847,195.782,31.993,196.303,31.993z"/>
	</g>
</g>
</svg>
