<?xml version="1.0" encoding="utf-8"?>
<!-- Generator: Adobe Illustrator 17.1.0, SVG Export Plug-In . SVG Version: 6.00 Build 0)  -->
<!DOCTYPE svg PUBLIC "-//W3C//DTD SVG 1.1//EN" "http://www.w3.org/Graphics/SVG/1.1/DTD/svg11.dtd">
<svg version="1.1" id="Layer_1" xmlns="http://www.w3.org/2000/svg" xmlns:xlink="http://www.w3.org/1999/xlink" x="0px" y="0px"
	 viewBox="0 0 100 100" enable-background="new 0 0 100 100" xml:space="preserve">
<path fill="#D50651" d="M98.6,46.7L86.7,34.8V18c0-2.6-2.1-4.7-4.7-4.7H65.2L53.3,1.4C52.4,0.5,51.2,0,50,0c-1.2,0-2.4,0.5-3.3,1.4
	L34.8,13.3H18c-2.6,0-4.7,2.1-4.7,4.7v16.8L1.4,46.7C0.5,47.6,0,48.8,0,50c0,1.2,0.5,2.4,1.4,3.3l11.9,11.9V82
	c0,2.6,2.1,4.7,4.7,4.7h16.8l11.9,11.9c0.9,0.9,2.1,1.4,3.3,1.4c1.2,0,2.4-0.5,3.3-1.4l11.9-11.9H82c2.6,0,4.7-2.1,4.7-4.7V65.2
	l11.9-11.9c0.9-0.9,1.4-2.1,1.4-3.3C100,48.8,99.5,47.6,98.6,46.7z"/>
</svg>
