<?xml version="1.0" encoding="utf-8"?>
<!-- Generator: Adobe Illustrator 17.1.0, SVG Export Plug-In . SVG Version: 6.00 Build 0)  -->
<!DOCTYPE svg PUBLIC "-//W3C//DTD SVG 1.1//EN" "http://www.w3.org/Graphics/SVG/1.1/DTD/svg11.dtd">
<svg version="1.1" id="Layer_1" xmlns="http://www.w3.org/2000/svg" xmlns:xlink="http://www.w3.org/1999/xlink" x="0px" y="0px"
	 viewBox="0 0 118 152" enable-background="new 0 0 118 152" xml:space="preserve">
<g>
	<path fill="#53B0EB" d="M76.4,19.5C70.5,12.5,64.9,5.8,61.2,1.1c-0.5-0.6-1.3-1-2.1-0.9c-0.8,0.1-1.6,0.5-2,1.3
		c-0.7,1.3-7.7,9.7-14.5,17.8C28.5,36.2,11,57.2,7.3,64.1c-6.1,11.4-8.4,24.8-6.5,37.6c1.9,12.8,8,24.7,17.2,33.5
		c11.2,10.7,25.8,16.5,41.1,16.5c10.8,0,21.4-3,30.6-8.6c13.7-8.3,23.1-21.4,26.7-36.8c3.7-16.1,0.6-33-8.7-47.5
		C102.5,50.8,88.6,34.2,76.4,19.5z"/>
	<path fill="#FFFFFF" d="M87.7,85.5l-7-7v-9.9c0-1.5-1.2-2.8-2.8-2.8H68l-7-7c-0.5-0.5-1.2-0.8-2-0.8c-0.7,0-1.4,0.3-2,0.8l-7,7
		h-9.9c-1.5,0-2.8,1.2-2.8,2.8v9.9l-7,7c-0.5,0.5-0.8,1.2-0.8,2c0,0.7,0.3,1.4,0.8,2l7,7v9.9c0,1.5,1.2,2.8,2.8,2.8H50l7,7
		c0.5,0.5,1.2,0.8,2,0.8s1.4-0.3,2-0.8l7-7h9.9c1.5,0,2.8-1.2,2.8-2.8v-9.9l7-7c0.5-0.5,0.8-1.2,0.8-2C88.6,86.7,88.3,86,87.7,85.5z
		"/>
</g>
</svg>
