<?xml version="1.0" encoding="utf-8"?>
<!-- Generator: Adobe Illustrator 17.1.0, SVG Export Plug-In . SVG Version: 6.00 Build 0)  -->
<!DOCTYPE svg PUBLIC "-//W3C//DTD SVG 1.1//EN" "http://www.w3.org/Graphics/SVG/1.1/DTD/svg11.dtd">
<svg version="1.1" id="Layer_1" xmlns="http://www.w3.org/2000/svg" xmlns:xlink="http://www.w3.org/1999/xlink" x="0px" y="0px"
	 viewBox="0 0 20 20" enable-background="new 0 0 20 20" xml:space="preserve">
<path d="M16.667,0H3.333C1.581,0,0,1.582,0,3.333v13.333C0,18.418,1.581,20,3.334,20H4.01H10h3.111h3.556
	C18.419,20,20,18.418,20,16.666V3.333C20,1.582,18.419,0,16.667,0z M14.746,7.565c0.005,0.105,0.007,0.212,0.007,0.318
	c0,3.235-2.462,6.965-6.967,6.965c-1.383,0-2.67-0.404-3.753-1.099c0.192,0.023,0.386,0.034,0.584,0.034
	c1.147,0,2.203-0.392,3.041-1.048c-1.071-0.02-1.976-0.728-2.287-1.701c0.149,0.028,0.303,0.044,0.46,0.044
	c0.223,0,0.44-0.029,0.645-0.085c-1.12-0.225-1.964-1.214-1.964-2.401c0-0.01,0-0.021,0-0.031c0.33,0.183,0.707,0.294,1.108,0.306
	C4.966,8.43,4.533,7.68,4.533,6.831c0-0.449,0.12-0.87,0.331-1.231c1.207,1.482,3.012,2.456,5.046,2.559
	C9.869,7.979,9.848,7.792,9.848,7.6c0-1.352,1.096-2.448,2.448-2.448c0.704,0,1.34,0.297,1.787,0.773
	c0.558-0.11,1.081-0.313,1.555-0.594c-0.184,0.572-0.571,1.051-1.078,1.355c0.496-0.059,0.969-0.19,1.406-0.385
	C15.64,6.79,15.225,7.221,14.746,7.565z"/>
</svg>
