<?xml version="1.0" encoding="utf-8"?>
<!-- Generator: Adobe Illustrator 17.1.0, SVG Export Plug-In . SVG Version: 6.00 Build 0)  -->
<!DOCTYPE svg PUBLIC "-//W3C//DTD SVG 1.1//EN" "http://www.w3.org/Graphics/SVG/1.1/DTD/svg11.dtd">
<svg version="1.1" id="Layer_1" xmlns="http://www.w3.org/2000/svg" xmlns:xlink="http://www.w3.org/1999/xlink" x="0px" y="0px"
	 viewBox="0 0 385.1 471.9" enable-background="new 0 0 385.1 471.9" xml:space="preserve">
<g>
	<path fill="#FFFFFF" d="M383.2,65.4l-16.7-16.7V25.2c0-3.6-3-6.6-6.6-6.6h-23.6L319.7,1.9C318.4,0.7,316.8,0,315,0
		c-1.8,0-3.4,0.7-4.7,1.9l-16.7,16.7h-23.6c-3.6,0-6.6,3-6.6,6.6v23.6l-16.7,16.7c-1.2,1.2-1.9,2.9-1.9,4.7s0.7,3.4,1.9,4.7
		l16.7,16.7V115c0,3.6,3,6.6,6.6,6.6h23.6l16.7,16.7c1.2,1.2,2.9,1.9,4.7,1.9s3.4-0.7,4.7-1.9l16.7-16.7h23.6c3.6,0,6.6-3,6.6-6.6
		V91.4l16.7-16.7c1.2-1.2,1.9-2.9,1.9-4.7S384.4,66.7,383.2,65.4z"/>
	<path fill="#FFFFFF" d="M287.6,223.4c-13.8-21.5-50.7-65.7-83.3-104.7c-15.7-18.8-30.6-36.6-40.4-48.9c-1.5-1.9-3.9-3-6.4-2.8
		c-2.5,0.2-4.7,1.6-5.9,3.8c-2,3.5-20.6,25.8-38.5,47.3c-37.4,45-84.1,100.9-94,119.4C2.8,268-3.4,303.7,1.8,338
		c5.2,34.3,21.5,66.2,46.1,89.6c29.9,28.5,68.9,44.2,109.8,44.2c28.9,0,57.2-8,81.9-23.1c36.5-22.3,61.9-57.2,71.3-98.4
		C320.8,307.4,312.6,262.3,287.6,223.4z"/>
</g>
</svg>
